<mxfile host="Electron" agent="Mozilla/5.0 (Windows NT 10.0; Win64; x64) AppleWebKit/537.36 (KHTML, like Gecko) draw.io/26.0.16 Chrome/132.0.6834.196 Electron/34.2.0 Safari/537.36" version="26.0.16" pages="4">
  <diagram name="Data Warehouse" id="YDn4hYunrdBq8U_W7dB1">
    <mxGraphModel dx="1050" dy="621" grid="1" gridSize="10" guides="1" tooltips="1" connect="1" arrows="1" fold="1" page="1" pageScale="1" pageWidth="850" pageHeight="1100" math="0" shadow="0">
      <root>
        <mxCell id="0" />
        <mxCell id="1" parent="0" />
        <mxCell id="qd5llZuf7pombfnNcrFz-1" value="" style="rounded=0;whiteSpace=wrap;html=1;fillColor=none;" parent="1" vertex="1">
          <mxGeometry x="44" y="90" width="130" height="480" as="geometry" />
        </mxCell>
        <mxCell id="qd5llZuf7pombfnNcrFz-3" value="" style="rounded=0;whiteSpace=wrap;html=1;fillColor=none;" parent="1" vertex="1">
          <mxGeometry x="205" y="90" width="435" height="480" as="geometry" />
        </mxCell>
        <mxCell id="qd5llZuf7pombfnNcrFz-4" value="&lt;font style=&quot;font-size: 15px;&quot;&gt;Data Warehouse&lt;/font&gt;" style="rounded=1;whiteSpace=wrap;html=1;" parent="1" vertex="1">
          <mxGeometry x="358" y="80" width="135" height="20" as="geometry" />
        </mxCell>
        <mxCell id="qd5llZuf7pombfnNcrFz-6" value="" style="rounded=0;whiteSpace=wrap;html=1;fillColor=none;" parent="1" vertex="1">
          <mxGeometry x="680" y="90" width="130" height="480" as="geometry" />
        </mxCell>
        <mxCell id="qd5llZuf7pombfnNcrFz-7" value="&lt;font style=&quot;font-size: 15px;&quot;&gt;Sources&lt;/font&gt;" style="rounded=1;whiteSpace=wrap;html=1;" parent="1" vertex="1">
          <mxGeometry x="59" y="80" width="100" height="20" as="geometry" />
        </mxCell>
        <mxCell id="qd5llZuf7pombfnNcrFz-11" value="&lt;font style=&quot;font-size: 15px;&quot;&gt;Consumers&lt;/font&gt;" style="rounded=1;whiteSpace=wrap;html=1;" parent="1" vertex="1">
          <mxGeometry x="690" y="80" width="100" height="20" as="geometry" />
        </mxCell>
        <mxCell id="qd5llZuf7pombfnNcrFz-14" value="" style="rounded=0;whiteSpace=wrap;html=1;fillColor=none;strokeColor=#d79b00;" parent="1" vertex="1">
          <mxGeometry x="230.5" y="130" width="112" height="410" as="geometry" />
        </mxCell>
        <mxCell id="qd5llZuf7pombfnNcrFz-17" value="" style="rounded=0;whiteSpace=wrap;html=1;fillColor=none;fontColor=#333333;strokeColor=#666666;" parent="1" vertex="1">
          <mxGeometry x="369" y="130" width="112" height="410" as="geometry" />
        </mxCell>
        <mxCell id="qd5llZuf7pombfnNcrFz-18" value="" style="rounded=0;whiteSpace=wrap;html=1;fillColor=none;strokeColor=#b85450;" parent="1" vertex="1">
          <mxGeometry x="502.5" y="130" width="112" height="410" as="geometry" />
        </mxCell>
        <mxCell id="qd5llZuf7pombfnNcrFz-19" value="&lt;font&gt;Bronze Layer&lt;/font&gt;" style="rounded=1;whiteSpace=wrap;html=1;fillColor=#ffe6cc;strokeColor=#d79b00;" parent="1" vertex="1">
          <mxGeometry x="236.5" y="120" width="100" height="20" as="geometry" />
        </mxCell>
        <mxCell id="qd5llZuf7pombfnNcrFz-20" value="&lt;font&gt;Silver Layer&lt;/font&gt;" style="rounded=1;whiteSpace=wrap;html=1;fillColor=#f5f5f5;fontColor=#333333;strokeColor=#666666;" parent="1" vertex="1">
          <mxGeometry x="375" y="120" width="100" height="20" as="geometry" />
        </mxCell>
        <mxCell id="qd5llZuf7pombfnNcrFz-21" value="&lt;font&gt;Gold Layer&lt;/font&gt;" style="rounded=1;whiteSpace=wrap;html=1;fillColor=#f8cecc;strokeColor=#b85450;" parent="1" vertex="1">
          <mxGeometry x="508.5" y="120" width="100" height="20" as="geometry" />
        </mxCell>
        <mxCell id="qd5llZuf7pombfnNcrFz-22" value="&lt;b&gt;CRM&lt;/b&gt;" style="image;aspect=fixed;html=1;points=[];align=center;fontSize=12;image=img/lib/azure2/general/Folder_Blank.svg;" parent="1" vertex="1">
          <mxGeometry x="70" y="200" width="49.29" height="40" as="geometry" />
        </mxCell>
        <mxCell id="qd5llZuf7pombfnNcrFz-23" value="" style="image;aspect=fixed;html=1;points=[];align=center;fontSize=12;image=img/lib/azure2/general/File.svg;" parent="1" vertex="1">
          <mxGeometry x="110" y="220" width="24.35" height="30" as="geometry" />
        </mxCell>
        <mxCell id="qd5llZuf7pombfnNcrFz-24" value="&lt;b&gt;ERP&lt;/b&gt;" style="image;aspect=fixed;html=1;points=[];align=center;fontSize=12;image=img/lib/azure2/general/Folder_Blank.svg;" parent="1" vertex="1">
          <mxGeometry x="70" y="310" width="49.29" height="40" as="geometry" />
        </mxCell>
        <mxCell id="qd5llZuf7pombfnNcrFz-25" value="" style="image;aspect=fixed;html=1;points=[];align=center;fontSize=12;image=img/lib/azure2/general/File.svg;" parent="1" vertex="1">
          <mxGeometry x="110" y="330" width="24.35" height="30" as="geometry" />
        </mxCell>
        <mxCell id="qd5llZuf7pombfnNcrFz-29" value="" style="endArrow=none;html=1;rounded=0;" parent="1" edge="1">
          <mxGeometry width="50" height="50" relative="1" as="geometry">
            <mxPoint x="54" y="400" as="sourcePoint" />
            <mxPoint x="164" y="400" as="targetPoint" />
          </mxGeometry>
        </mxCell>
        <mxCell id="qd5llZuf7pombfnNcrFz-31" value="&lt;b&gt;Object Type:&lt;/b&gt; CSV&amp;nbsp; file&lt;br&gt;&lt;br&gt;&lt;b&gt;Interface:&amp;nbsp; &amp;nbsp; &amp;nbsp;&amp;nbsp;&lt;/b&gt;Files in folder" style="text;html=1;align=center;verticalAlign=middle;whiteSpace=wrap;rounded=0;" parent="1" vertex="1">
          <mxGeometry x="59" y="420" width="101" height="100" as="geometry" />
        </mxCell>
        <mxCell id="qd5llZuf7pombfnNcrFz-32" value="" style="html=1;verticalLabelPosition=bottom;align=center;labelBackgroundColor=#ffffff;verticalAlign=top;strokeWidth=2;strokeColor=#d79b00;shadow=0;dashed=0;shape=mxgraph.ios7.icons.data;fillColor=#ffe6cc;" parent="1" vertex="1">
          <mxGeometry x="265" y="185" width="50" height="90" as="geometry" />
        </mxCell>
        <mxCell id="qd5llZuf7pombfnNcrFz-33" value="" style="html=1;verticalLabelPosition=bottom;align=center;labelBackgroundColor=#ffffff;verticalAlign=top;strokeWidth=2;strokeColor=#666666;shadow=0;dashed=0;shape=mxgraph.ios7.icons.data;fillColor=#f5f5f5;fontColor=#333333;" parent="1" vertex="1">
          <mxGeometry x="400.5" y="175" width="50" height="90" as="geometry" />
        </mxCell>
        <mxCell id="qd5llZuf7pombfnNcrFz-34" value="" style="html=1;verticalLabelPosition=bottom;align=center;labelBackgroundColor=#ffffff;verticalAlign=top;strokeWidth=2;strokeColor=#b85450;shadow=0;dashed=0;shape=mxgraph.ios7.icons.data;fillColor=#f8cecc;" parent="1" vertex="1">
          <mxGeometry x="533.5" y="175" width="50" height="90" as="geometry" />
        </mxCell>
        <mxCell id="qd5llZuf7pombfnNcrFz-35" value="" style="shape=singleArrow;whiteSpace=wrap;html=1;fillColor=#e3c800;fontColor=#000000;strokeColor=#B09500;" parent="1" vertex="1">
          <mxGeometry x="336.5" y="215" width="50" height="50" as="geometry" />
        </mxCell>
        <mxCell id="qd5llZuf7pombfnNcrFz-36" value="" style="shape=singleArrow;whiteSpace=wrap;html=1;fillColor=#e3c800;fontColor=#000000;strokeColor=#B09500;" parent="1" vertex="1">
          <mxGeometry x="170" y="225" width="70" height="40" as="geometry" />
        </mxCell>
        <mxCell id="qd5llZuf7pombfnNcrFz-37" value="" style="shape=singleArrow;whiteSpace=wrap;html=1;fillColor=#e3c800;fontColor=#000000;strokeColor=#B09500;" parent="1" vertex="1">
          <mxGeometry x="470" y="215" width="50" height="50" as="geometry" />
        </mxCell>
        <mxCell id="qd5llZuf7pombfnNcrFz-41" value="Raw Data" style="text;html=1;align=center;verticalAlign=middle;whiteSpace=wrap;rounded=0;" parent="1" vertex="1">
          <mxGeometry x="260" y="279" width="60" height="30" as="geometry" />
        </mxCell>
        <mxCell id="qd5llZuf7pombfnNcrFz-42" value="Cleaned, Standard Data" style="text;html=1;align=center;verticalAlign=middle;whiteSpace=wrap;rounded=0;" parent="1" vertex="1">
          <mxGeometry x="380" y="274" width="90" height="40" as="geometry" />
        </mxCell>
        <mxCell id="qd5llZuf7pombfnNcrFz-44" value="Business-Ready Data" style="text;html=1;align=center;verticalAlign=middle;whiteSpace=wrap;rounded=0;" parent="1" vertex="1">
          <mxGeometry x="513.5" y="274" width="90" height="40" as="geometry" />
        </mxCell>
        <mxCell id="qd5llZuf7pombfnNcrFz-45" value="" style="endArrow=none;html=1;rounded=0;" parent="1" edge="1">
          <mxGeometry width="50" height="50" relative="1" as="geometry">
            <mxPoint x="239" y="314" as="sourcePoint" />
            <mxPoint x="334" y="314" as="targetPoint" />
          </mxGeometry>
        </mxCell>
        <mxCell id="qd5llZuf7pombfnNcrFz-46" value="" style="endArrow=none;html=1;rounded=0;" parent="1" edge="1">
          <mxGeometry width="50" height="50" relative="1" as="geometry">
            <mxPoint x="374.5" y="314" as="sourcePoint" />
            <mxPoint x="474" y="314" as="targetPoint" />
          </mxGeometry>
        </mxCell>
        <mxCell id="qd5llZuf7pombfnNcrFz-47" value="" style="endArrow=none;html=1;rounded=0;" parent="1" edge="1">
          <mxGeometry width="50" height="50" relative="1" as="geometry">
            <mxPoint x="509.5" y="314" as="sourcePoint" />
            <mxPoint x="605" y="314" as="targetPoint" />
          </mxGeometry>
        </mxCell>
        <mxCell id="qd5llZuf7pombfnNcrFz-48" value="&lt;div style=&quot;text-align: left;&quot;&gt;&lt;b style=&quot;background-color: transparent; color: light-dark(rgb(0, 0, 0), rgb(255, 255, 255)); font-size: 8px;&quot;&gt;Object Type:&lt;/b&gt;&lt;span style=&quot;background-color: transparent; color: light-dark(rgb(0, 0, 0), rgb(255, 255, 255)); font-size: 8px;&quot;&gt;&amp;nbsp;Table&lt;/span&gt;&lt;/div&gt;&lt;font style=&quot;&quot;&gt;&lt;br&gt;&lt;div style=&quot;text-align: left;&quot;&gt;&lt;b style=&quot;background-color: transparent; color: light-dark(rgb(0, 0, 0), rgb(255, 255, 255)); font-size: 8px;&quot;&gt;Load:&amp;nbsp; &amp;nbsp; &amp;nbsp;&amp;nbsp;&lt;/b&gt;&lt;/div&gt;&lt;/font&gt;&lt;span style=&quot;background-color: transparent; color: light-dark(rgb(0, 0, 0), rgb(255, 255, 255)); font-size: 8px;&quot;&gt;&lt;div style=&quot;text-align: left;&quot;&gt;&lt;span style=&quot;background-color: transparent; color: light-dark(rgb(0, 0, 0), rgb(255, 255, 255));&quot;&gt;Batch Processing&lt;/span&gt;&lt;/div&gt;&lt;/span&gt;&lt;font style=&quot;&quot;&gt;&lt;span style=&quot;background-color: transparent; color: light-dark(rgb(0, 0, 0), rgb(255, 255, 255)); font-size: 8px;&quot;&gt;&lt;div style=&quot;text-align: left;&quot;&gt;&lt;span style=&quot;background-color: transparent; color: light-dark(rgb(0, 0, 0), rgb(255, 255, 255));&quot;&gt;Full Load(Trunc &amp;amp; Insert)&lt;/span&gt;&lt;/div&gt;&lt;/span&gt;&lt;/font&gt;&lt;font style=&quot;&quot;&gt;&lt;div style=&quot;&quot;&gt;&lt;div style=&quot;text-align: left;&quot;&gt;&lt;b style=&quot;font-size: 8px; background-color: transparent; color: light-dark(rgb(0, 0, 0), rgb(255, 255, 255));&quot;&gt;&lt;br&gt;No Transformations&lt;br&gt;&lt;br&gt;&lt;/b&gt;&lt;/div&gt;&lt;span style=&quot;font-size: 8px;&quot;&gt;&lt;div style=&quot;text-align: left;&quot;&gt;&lt;b style=&quot;background-color: transparent; color: light-dark(rgb(0, 0, 0), rgb(255, 255, 255));&quot;&gt;Data Model: &lt;/b&gt;&lt;span style=&quot;background-color: transparent; color: light-dark(rgb(0, 0, 0), rgb(255, 255, 255));&quot;&gt;None(As-is)&lt;/span&gt;&lt;/div&gt;&lt;/span&gt;&lt;/div&gt;&lt;/font&gt;" style="text;html=1;align=center;verticalAlign=middle;whiteSpace=wrap;rounded=0;" parent="1" vertex="1">
          <mxGeometry x="236.5" y="340" width="101" height="180" as="geometry" />
        </mxCell>
        <mxCell id="qd5llZuf7pombfnNcrFz-49" value="&lt;div style=&quot;text-align: left;&quot;&gt;&lt;b style=&quot;background-color: transparent; color: light-dark(rgb(0, 0, 0), rgb(255, 255, 255)); font-size: 8px;&quot;&gt;Object Type:&lt;/b&gt;&lt;span style=&quot;background-color: transparent; color: light-dark(rgb(0, 0, 0), rgb(255, 255, 255)); font-size: 8px;&quot;&gt;&amp;nbsp;Table&lt;/span&gt;&lt;/div&gt;&lt;font style=&quot;&quot;&gt;&lt;br&gt;&lt;div style=&quot;text-align: left;&quot;&gt;&lt;b style=&quot;background-color: transparent; color: light-dark(rgb(0, 0, 0), rgb(255, 255, 255)); font-size: 8px;&quot;&gt;Load:&amp;nbsp; &amp;nbsp; &amp;nbsp;&amp;nbsp;&lt;/b&gt;&lt;/div&gt;&lt;span style=&quot;background-color: transparent; color: light-dark(rgb(0, 0, 0), rgb(255, 255, 255)); font-size: 8px;&quot;&gt;&lt;div style=&quot;text-align: left;&quot;&gt;&lt;span style=&quot;background-color: transparent; color: light-dark(rgb(0, 0, 0), rgb(255, 255, 255));&quot;&gt;Batch Processing&lt;/span&gt;&lt;br&gt;&lt;span style=&quot;background-color: transparent; color: light-dark(rgb(0, 0, 0), rgb(255, 255, 255));&quot;&gt;Full Load(Trunc &amp;amp; Insert)&lt;br&gt;&lt;br&gt;&lt;/span&gt;&lt;/div&gt;&lt;/span&gt;&lt;div style=&quot;&quot;&gt;&lt;div style=&quot;text-align: left;&quot;&gt;&lt;span style=&quot;font-size: 8px; background-color: transparent; color: light-dark(rgb(0, 0, 0), rgb(255, 255, 255));&quot;&gt;&lt;b&gt;Transformations:&lt;/b&gt;&lt;/span&gt;&lt;/div&gt;&lt;div style=&quot;text-align: left;&quot;&gt;&lt;span style=&quot;background-color: transparent; color: light-dark(rgb(0, 0, 0), rgb(255, 255, 255)); font-size: 8px;&quot;&gt;Data Clensing&lt;/span&gt;&lt;/div&gt;&lt;div style=&quot;text-align: left;&quot;&gt;&lt;span style=&quot;background-color: transparent; color: light-dark(rgb(0, 0, 0), rgb(255, 255, 255)); font-size: 8px;&quot;&gt;Data Standarization&lt;/span&gt;&lt;/div&gt;&lt;div style=&quot;text-align: left;&quot;&gt;&lt;span style=&quot;background-color: transparent; color: light-dark(rgb(0, 0, 0), rgb(255, 255, 255)); font-size: 8px;&quot;&gt;Data Normalization&lt;/span&gt;&lt;/div&gt;&lt;div style=&quot;text-align: left;&quot;&gt;&lt;span style=&quot;background-color: transparent; color: light-dark(rgb(0, 0, 0), rgb(255, 255, 255)); font-size: 8px;&quot;&gt;Derived Columns&lt;/span&gt;&lt;/div&gt;&lt;div style=&quot;text-align: left;&quot;&gt;&lt;span style=&quot;background-color: transparent; color: light-dark(rgb(0, 0, 0), rgb(255, 255, 255)); font-size: 8px;&quot;&gt;Data Enrichment&lt;br&gt;&lt;br&gt;&lt;/span&gt;&lt;/div&gt;&lt;span style=&quot;font-size: 8px;&quot;&gt;&lt;div style=&quot;text-align: left;&quot;&gt;&lt;b style=&quot;background-color: transparent; color: light-dark(rgb(0, 0, 0), rgb(255, 255, 255));&quot;&gt;Data Model: &lt;/b&gt;&lt;span style=&quot;background-color: transparent; color: light-dark(rgb(0, 0, 0), rgb(255, 255, 255));&quot;&gt;None(As-is)&lt;/span&gt;&lt;/div&gt;&lt;/span&gt;&lt;/div&gt;&lt;/font&gt;" style="text;html=1;align=center;verticalAlign=middle;whiteSpace=wrap;rounded=0;" parent="1" vertex="1">
          <mxGeometry x="375" y="330" width="101" height="190" as="geometry" />
        </mxCell>
        <mxCell id="qd5llZuf7pombfnNcrFz-52" value="&lt;div style=&quot;text-align: left;&quot;&gt;&lt;b style=&quot;background-color: transparent; color: light-dark(rgb(0, 0, 0), rgb(255, 255, 255)); font-size: 8px;&quot;&gt;Object Type:&lt;/b&gt;&lt;span style=&quot;background-color: transparent; color: light-dark(rgb(0, 0, 0), rgb(255, 255, 255)); font-size: 8px;&quot;&gt;&amp;nbsp;Views&lt;/span&gt;&lt;/div&gt;&lt;font style=&quot;&quot;&gt;&lt;br&gt;&lt;div style=&quot;text-align: left;&quot;&gt;&lt;b style=&quot;background-color: transparent; color: light-dark(rgb(0, 0, 0), rgb(255, 255, 255)); font-size: 8px;&quot;&gt;No Load&lt;br&gt;&lt;br&gt;&lt;/b&gt;&lt;/div&gt;&lt;div style=&quot;&quot;&gt;&lt;div style=&quot;text-align: left;&quot;&gt;&lt;span style=&quot;font-size: 8px; background-color: transparent; color: light-dark(rgb(0, 0, 0), rgb(255, 255, 255));&quot;&gt;&lt;b&gt;Transformations:&lt;/b&gt;&lt;/span&gt;&lt;/div&gt;&lt;div style=&quot;text-align: left;&quot;&gt;&lt;span style=&quot;background-color: transparent; color: light-dark(rgb(0, 0, 0), rgb(255, 255, 255)); font-size: 8px;&quot;&gt;Data Integrations&lt;br&gt;Aggregations&lt;br&gt;Business logics&lt;/span&gt;&lt;/div&gt;&lt;div style=&quot;text-align: left;&quot;&gt;&lt;span style=&quot;background-color: transparent; color: light-dark(rgb(0, 0, 0), rgb(255, 255, 255)); font-size: 8px;&quot;&gt;&lt;br&gt;&lt;/span&gt;&lt;/div&gt;&lt;span style=&quot;font-size: 8px;&quot;&gt;&lt;div style=&quot;text-align: left;&quot;&gt;&lt;span style=&quot;background-color: transparent; color: light-dark(rgb(0, 0, 0), rgb(255, 255, 255));&quot;&gt;&lt;b&gt;Data Model:&lt;/b&gt;&lt;br&gt;Star Schema&lt;br&gt;Flat Table&lt;br&gt;Aggregated Table&lt;/span&gt;&lt;/div&gt;&lt;/span&gt;&lt;/div&gt;&lt;/font&gt;" style="text;html=1;align=center;verticalAlign=middle;whiteSpace=wrap;rounded=0;" parent="1" vertex="1">
          <mxGeometry x="507.5" y="330" width="101" height="190" as="geometry" />
        </mxCell>
        <mxCell id="qd5llZuf7pombfnNcrFz-53" value="" style="image;aspect=fixed;html=1;points=[];align=center;fontSize=12;image=img/lib/azure2/power_platform/PowerBI.svg;" parent="1" vertex="1">
          <mxGeometry x="714.5" y="132" width="51" height="68" as="geometry" />
        </mxCell>
        <mxCell id="qd5llZuf7pombfnNcrFz-54" value="BI &amp;amp; Reporting" style="text;html=1;align=center;verticalAlign=middle;whiteSpace=wrap;rounded=0;" parent="1" vertex="1">
          <mxGeometry x="700" y="200" width="90" height="30" as="geometry" />
        </mxCell>
        <mxCell id="qd5llZuf7pombfnNcrFz-55" value="" style="image;aspect=fixed;html=1;points=[];align=center;fontSize=12;image=img/lib/azure2/databases/Azure_SQL.svg;" parent="1" vertex="1">
          <mxGeometry x="701.5" y="250" width="64" height="46" as="geometry" />
        </mxCell>
        <mxCell id="qd5llZuf7pombfnNcrFz-56" value="" style="sketch=0;points=[[0,0,0],[0.25,0,0],[0.5,0,0],[0.75,0,0],[1,0,0],[0,1,0],[0.25,1,0],[0.5,1,0],[0.75,1,0],[1,1,0],[0,0.25,0],[0,0.5,0],[0,0.75,0],[1,0.25,0],[1,0.5,0],[1,0.75,0]];outlineConnect=0;fontColor=#232F3E;fillColor=#01A88D;strokeColor=#ffffff;dashed=0;verticalLabelPosition=bottom;verticalAlign=top;align=center;html=1;fontSize=12;fontStyle=0;aspect=fixed;shape=mxgraph.aws4.resourceIcon;resIcon=mxgraph.aws4.deep_learning_amis;" parent="1" vertex="1">
          <mxGeometry x="706" y="420" width="78" height="78" as="geometry" />
        </mxCell>
        <mxCell id="qd5llZuf7pombfnNcrFz-57" value="Ad-Hoc SQL Querries" style="text;html=1;align=center;verticalAlign=middle;whiteSpace=wrap;rounded=0;" parent="1" vertex="1">
          <mxGeometry x="688.5" y="310" width="90" height="30" as="geometry" />
        </mxCell>
        <mxCell id="qd5llZuf7pombfnNcrFz-58" value="Machine Learning" style="text;html=1;align=center;verticalAlign=middle;whiteSpace=wrap;rounded=0;" parent="1" vertex="1">
          <mxGeometry x="706" y="510" width="90" height="30" as="geometry" />
        </mxCell>
        <mxCell id="qd5llZuf7pombfnNcrFz-59" value="" style="image;aspect=fixed;html=1;points=[];align=center;fontSize=12;image=img/lib/azure2/databases/Azure_Database_MariaDB_Server.svg;" parent="1" vertex="1">
          <mxGeometry x="205" y="22" width="43.5" height="58" as="geometry" />
        </mxCell>
        <mxCell id="qd5llZuf7pombfnNcrFz-60" value="SQL Server" style="text;html=1;align=center;verticalAlign=middle;whiteSpace=wrap;rounded=0;" parent="1" vertex="1">
          <mxGeometry x="248.5" y="50" width="71.5" height="30" as="geometry" />
        </mxCell>
      </root>
    </mxGraphModel>
  </diagram>
  <diagram id="dYTXV3oSblyfFL_7z3pR" name="CRM and ERP">
    <mxGraphModel dx="1235" dy="731" grid="1" gridSize="10" guides="1" tooltips="1" connect="1" arrows="1" fold="1" page="1" pageScale="1" pageWidth="1200" pageHeight="1920" math="0" shadow="0">
      <root>
        <mxCell id="0" />
        <mxCell id="1" parent="0" />
        <mxCell id="9J9-05VAOkO5LiHcFs-q-1" value="" style="rounded=0;whiteSpace=wrap;html=1;fillColor=none;" vertex="1" parent="1">
          <mxGeometry x="70" y="80" width="160" height="500" as="geometry" />
        </mxCell>
        <mxCell id="9J9-05VAOkO5LiHcFs-q-2" value="&lt;b&gt;&lt;font style=&quot;font-size: 15px;&quot;&gt;Sources&lt;/font&gt;&lt;/b&gt;" style="rounded=1;whiteSpace=wrap;html=1;" vertex="1" parent="1">
          <mxGeometry x="95" y="70" width="110" height="30" as="geometry" />
        </mxCell>
        <mxCell id="nnDg7mDdk3yh9InR8dQb-11" style="edgeStyle=orthogonalEdgeStyle;rounded=0;orthogonalLoop=1;jettySize=auto;html=1;entryX=0;entryY=0.5;entryDx=0;entryDy=0;" edge="1" parent="1" source="9J9-05VAOkO5LiHcFs-q-3" target="nnDg7mDdk3yh9InR8dQb-5">
          <mxGeometry relative="1" as="geometry" />
        </mxCell>
        <mxCell id="nnDg7mDdk3yh9InR8dQb-13" style="edgeStyle=orthogonalEdgeStyle;rounded=0;orthogonalLoop=1;jettySize=auto;html=1;entryX=0;entryY=0.5;entryDx=0;entryDy=0;" edge="1" parent="1" source="9J9-05VAOkO5LiHcFs-q-3" target="nnDg7mDdk3yh9InR8dQb-4">
          <mxGeometry relative="1" as="geometry" />
        </mxCell>
        <mxCell id="nnDg7mDdk3yh9InR8dQb-14" style="edgeStyle=orthogonalEdgeStyle;rounded=0;orthogonalLoop=1;jettySize=auto;html=1;entryX=0;entryY=0.25;entryDx=0;entryDy=0;" edge="1" parent="1" source="9J9-05VAOkO5LiHcFs-q-3" target="nnDg7mDdk3yh9InR8dQb-6">
          <mxGeometry relative="1" as="geometry" />
        </mxCell>
        <mxCell id="9J9-05VAOkO5LiHcFs-q-3" value="&lt;b&gt;CRM&lt;/b&gt;" style="image;aspect=fixed;html=1;points=[];align=center;fontSize=12;image=img/lib/azure2/general/Folder_Blank.svg;" vertex="1" parent="1">
          <mxGeometry x="130" y="210" width="61.61" height="50" as="geometry" />
        </mxCell>
        <mxCell id="nnDg7mDdk3yh9InR8dQb-15" style="edgeStyle=orthogonalEdgeStyle;rounded=0;orthogonalLoop=1;jettySize=auto;html=1;" edge="1" parent="1" source="nnDg7mDdk3yh9InR8dQb-1" target="nnDg7mDdk3yh9InR8dQb-8">
          <mxGeometry relative="1" as="geometry" />
        </mxCell>
        <mxCell id="nnDg7mDdk3yh9InR8dQb-16" style="edgeStyle=orthogonalEdgeStyle;rounded=0;orthogonalLoop=1;jettySize=auto;html=1;entryX=0;entryY=0.5;entryDx=0;entryDy=0;" edge="1" parent="1" source="nnDg7mDdk3yh9InR8dQb-1" target="nnDg7mDdk3yh9InR8dQb-7">
          <mxGeometry relative="1" as="geometry" />
        </mxCell>
        <mxCell id="nnDg7mDdk3yh9InR8dQb-17" style="edgeStyle=orthogonalEdgeStyle;rounded=0;orthogonalLoop=1;jettySize=auto;html=1;entryX=0;entryY=0.5;entryDx=0;entryDy=0;" edge="1" parent="1" source="nnDg7mDdk3yh9InR8dQb-1" target="nnDg7mDdk3yh9InR8dQb-9">
          <mxGeometry relative="1" as="geometry" />
        </mxCell>
        <mxCell id="nnDg7mDdk3yh9InR8dQb-1" value="&lt;b&gt;ERP&lt;/b&gt;" style="image;aspect=fixed;html=1;points=[];align=center;fontSize=12;image=img/lib/azure2/general/Folder_Blank.svg;" vertex="1" parent="1">
          <mxGeometry x="119.19999999999999" y="430" width="61.61" height="50" as="geometry" />
        </mxCell>
        <mxCell id="nnDg7mDdk3yh9InR8dQb-2" value="" style="rounded=0;whiteSpace=wrap;html=1;fillColor=none;strokeColor=#d79b00;" vertex="1" parent="1">
          <mxGeometry x="305" y="110" width="225" height="470" as="geometry" />
        </mxCell>
        <mxCell id="nnDg7mDdk3yh9InR8dQb-3" value="&lt;b&gt;&lt;font style=&quot;font-size: 15px;&quot;&gt;Bronze Layer&lt;/font&gt;&lt;/b&gt;" style="rounded=1;whiteSpace=wrap;html=1;fillColor=#ffe6cc;strokeColor=#d79b00;" vertex="1" parent="1">
          <mxGeometry x="322.5" y="70" width="190" height="30" as="geometry" />
        </mxCell>
        <mxCell id="eheDV2lgLifIxSYM33uc-10" style="edgeStyle=orthogonalEdgeStyle;rounded=0;orthogonalLoop=1;jettySize=auto;html=1;" edge="1" parent="1" source="nnDg7mDdk3yh9InR8dQb-4" target="eheDV2lgLifIxSYM33uc-3">
          <mxGeometry relative="1" as="geometry" />
        </mxCell>
        <mxCell id="nnDg7mDdk3yh9InR8dQb-4" value="&lt;b&gt;&lt;font style=&quot;font-size: 15px;&quot;&gt;crm_sales_details&lt;/font&gt;&lt;/b&gt;" style="rounded=1;whiteSpace=wrap;html=1;fillColor=#ffe6cc;strokeColor=#d79b00;" vertex="1" parent="1">
          <mxGeometry x="318.75" y="160" width="190" height="30" as="geometry" />
        </mxCell>
        <mxCell id="eheDV2lgLifIxSYM33uc-12" style="edgeStyle=orthogonalEdgeStyle;rounded=0;orthogonalLoop=1;jettySize=auto;html=1;entryX=0;entryY=0.5;entryDx=0;entryDy=0;" edge="1" parent="1" source="nnDg7mDdk3yh9InR8dQb-5" target="eheDV2lgLifIxSYM33uc-5">
          <mxGeometry relative="1" as="geometry" />
        </mxCell>
        <mxCell id="nnDg7mDdk3yh9InR8dQb-5" value="&lt;b&gt;&lt;font style=&quot;font-size: 15px;&quot;&gt;crm_cust_info&lt;/font&gt;&lt;/b&gt;" style="rounded=1;whiteSpace=wrap;html=1;fillColor=#ffe6cc;strokeColor=#d79b00;" vertex="1" parent="1">
          <mxGeometry x="322.5" y="220" width="190" height="30" as="geometry" />
        </mxCell>
        <mxCell id="eheDV2lgLifIxSYM33uc-13" style="edgeStyle=orthogonalEdgeStyle;rounded=0;orthogonalLoop=1;jettySize=auto;html=1;entryX=0;entryY=0.5;entryDx=0;entryDy=0;" edge="1" parent="1" source="nnDg7mDdk3yh9InR8dQb-6" target="eheDV2lgLifIxSYM33uc-6">
          <mxGeometry relative="1" as="geometry" />
        </mxCell>
        <mxCell id="nnDg7mDdk3yh9InR8dQb-6" value="&lt;b&gt;&lt;font style=&quot;font-size: 15px;&quot;&gt;crm_prd_info&lt;/font&gt;&lt;/b&gt;" style="rounded=1;whiteSpace=wrap;html=1;fillColor=#ffe6cc;strokeColor=#d79b00;" vertex="1" parent="1">
          <mxGeometry x="322.5" y="280" width="190" height="30" as="geometry" />
        </mxCell>
        <mxCell id="eheDV2lgLifIxSYM33uc-14" style="edgeStyle=orthogonalEdgeStyle;rounded=0;orthogonalLoop=1;jettySize=auto;html=1;entryX=0;entryY=0.5;entryDx=0;entryDy=0;" edge="1" parent="1" source="nnDg7mDdk3yh9InR8dQb-7" target="eheDV2lgLifIxSYM33uc-7">
          <mxGeometry relative="1" as="geometry" />
        </mxCell>
        <mxCell id="nnDg7mDdk3yh9InR8dQb-7" value="&lt;b&gt;&lt;font style=&quot;font-size: 15px;&quot;&gt;erp_&lt;/font&gt;&lt;/b&gt;&lt;span style=&quot;font-size: 15px;&quot;&gt;&lt;b&gt;cust_az12&lt;/b&gt;&lt;/span&gt;" style="rounded=1;whiteSpace=wrap;html=1;fillColor=#ffe6cc;strokeColor=#d79b00;" vertex="1" parent="1">
          <mxGeometry x="318.75" y="380" width="190" height="30" as="geometry" />
        </mxCell>
        <mxCell id="eheDV2lgLifIxSYM33uc-15" style="edgeStyle=orthogonalEdgeStyle;rounded=0;orthogonalLoop=1;jettySize=auto;html=1;entryX=0;entryY=0.5;entryDx=0;entryDy=0;" edge="1" parent="1" source="nnDg7mDdk3yh9InR8dQb-8" target="eheDV2lgLifIxSYM33uc-8">
          <mxGeometry relative="1" as="geometry" />
        </mxCell>
        <mxCell id="nnDg7mDdk3yh9InR8dQb-8" value="&lt;b&gt;&lt;font style=&quot;font-size: 15px;&quot;&gt;erp_&lt;/font&gt;&lt;/b&gt;&lt;span style=&quot;font-size: 15px;&quot;&gt;&lt;b&gt;loc_a101&lt;/b&gt;&lt;/span&gt;" style="rounded=1;whiteSpace=wrap;html=1;fillColor=#ffe6cc;strokeColor=#d79b00;" vertex="1" parent="1">
          <mxGeometry x="318.75" y="440" width="190" height="30" as="geometry" />
        </mxCell>
        <mxCell id="eheDV2lgLifIxSYM33uc-16" style="edgeStyle=orthogonalEdgeStyle;rounded=0;orthogonalLoop=1;jettySize=auto;html=1;entryX=0;entryY=0.5;entryDx=0;entryDy=0;" edge="1" parent="1" source="nnDg7mDdk3yh9InR8dQb-9" target="eheDV2lgLifIxSYM33uc-9">
          <mxGeometry relative="1" as="geometry" />
        </mxCell>
        <mxCell id="nnDg7mDdk3yh9InR8dQb-9" value="&lt;b&gt;&lt;font style=&quot;font-size: 15px;&quot;&gt;erp_&lt;/font&gt;&lt;/b&gt;&lt;span style=&quot;font-size: 15px;&quot;&gt;&lt;b&gt;px_cat_g1v2&lt;/b&gt;&lt;/span&gt;" style="rounded=1;whiteSpace=wrap;html=1;fillColor=#ffe6cc;strokeColor=#d79b00;" vertex="1" parent="1">
          <mxGeometry x="318.75" y="500" width="190" height="30" as="geometry" />
        </mxCell>
        <mxCell id="eheDV2lgLifIxSYM33uc-1" value="" style="rounded=0;whiteSpace=wrap;html=1;fillColor=none;strokeColor=#666666;fontColor=#333333;" vertex="1" parent="1">
          <mxGeometry x="580" y="110" width="225" height="470" as="geometry" />
        </mxCell>
        <mxCell id="eheDV2lgLifIxSYM33uc-2" value="&lt;b&gt;&lt;font style=&quot;font-size: 15px;&quot;&gt;Silver Layer&lt;/font&gt;&lt;/b&gt;" style="rounded=1;whiteSpace=wrap;html=1;fillColor=#f5f5f5;strokeColor=#666666;fontColor=#333333;" vertex="1" parent="1">
          <mxGeometry x="597.5" y="70" width="190" height="30" as="geometry" />
        </mxCell>
        <mxCell id="1KzH7AS0oNHE0JMtrjqW-12" style="edgeStyle=orthogonalEdgeStyle;rounded=0;orthogonalLoop=1;jettySize=auto;html=1;entryX=0;entryY=0.75;entryDx=0;entryDy=0;" edge="1" parent="1" source="eheDV2lgLifIxSYM33uc-3" target="1KzH7AS0oNHE0JMtrjqW-3">
          <mxGeometry relative="1" as="geometry" />
        </mxCell>
        <mxCell id="eheDV2lgLifIxSYM33uc-3" value="&lt;b&gt;&lt;font style=&quot;font-size: 15px;&quot;&gt;crm_sales_details&lt;/font&gt;&lt;/b&gt;" style="rounded=1;whiteSpace=wrap;html=1;fillColor=#f5f5f5;strokeColor=#666666;fontColor=#333333;" vertex="1" parent="1">
          <mxGeometry x="593.75" y="160" width="190" height="30" as="geometry" />
        </mxCell>
        <mxCell id="eheDV2lgLifIxSYM33uc-5" value="&lt;b&gt;&lt;font style=&quot;font-size: 15px;&quot;&gt;crm_cust_info&lt;/font&gt;&lt;/b&gt;" style="rounded=1;whiteSpace=wrap;html=1;fillColor=#f5f5f5;strokeColor=#666666;fontColor=#333333;" vertex="1" parent="1">
          <mxGeometry x="597.5" y="220" width="190" height="30" as="geometry" />
        </mxCell>
        <mxCell id="eheDV2lgLifIxSYM33uc-6" value="&lt;b&gt;&lt;font style=&quot;font-size: 15px;&quot;&gt;crm_prd_info&lt;/font&gt;&lt;/b&gt;" style="rounded=1;whiteSpace=wrap;html=1;fillColor=#f5f5f5;strokeColor=#666666;fontColor=#333333;" vertex="1" parent="1">
          <mxGeometry x="597.5" y="280" width="190" height="30" as="geometry" />
        </mxCell>
        <mxCell id="eheDV2lgLifIxSYM33uc-7" value="&lt;b&gt;&lt;font style=&quot;font-size: 15px;&quot;&gt;erp_&lt;/font&gt;&lt;/b&gt;&lt;span style=&quot;font-size: 15px;&quot;&gt;&lt;b&gt;cust_az12&lt;/b&gt;&lt;/span&gt;" style="rounded=1;whiteSpace=wrap;html=1;fillColor=#f5f5f5;strokeColor=#666666;fontColor=#333333;" vertex="1" parent="1">
          <mxGeometry x="593.75" y="380" width="190" height="30" as="geometry" />
        </mxCell>
        <mxCell id="eheDV2lgLifIxSYM33uc-8" value="&lt;b&gt;&lt;font style=&quot;font-size: 15px;&quot;&gt;erp_&lt;/font&gt;&lt;/b&gt;&lt;span style=&quot;font-size: 15px;&quot;&gt;&lt;b&gt;loc_a101&lt;/b&gt;&lt;/span&gt;" style="rounded=1;whiteSpace=wrap;html=1;fillColor=#f5f5f5;strokeColor=#666666;fontColor=#333333;" vertex="1" parent="1">
          <mxGeometry x="593.75" y="440" width="190" height="30" as="geometry" />
        </mxCell>
        <mxCell id="eheDV2lgLifIxSYM33uc-9" value="&lt;b&gt;&lt;font style=&quot;font-size: 15px;&quot;&gt;erp_&lt;/font&gt;&lt;/b&gt;&lt;span style=&quot;font-size: 15px;&quot;&gt;&lt;b&gt;px_cat_g1v2&lt;/b&gt;&lt;/span&gt;" style="rounded=1;whiteSpace=wrap;html=1;fillColor=#f5f5f5;strokeColor=#666666;fontColor=#333333;" vertex="1" parent="1">
          <mxGeometry x="593.75" y="500" width="190" height="30" as="geometry" />
        </mxCell>
        <mxCell id="1KzH7AS0oNHE0JMtrjqW-1" value="" style="rounded=0;whiteSpace=wrap;html=1;fillColor=none;strokeColor=#666666;fontColor=#333333;" vertex="1" parent="1">
          <mxGeometry x="840" y="110" width="225" height="470" as="geometry" />
        </mxCell>
        <mxCell id="1KzH7AS0oNHE0JMtrjqW-2" value="&lt;b&gt;&lt;font style=&quot;font-size: 15px;&quot;&gt;Gold Layer&lt;/font&gt;&lt;/b&gt;" style="rounded=1;whiteSpace=wrap;html=1;fillColor=#f5f5f5;strokeColor=#666666;fontColor=#333333;" vertex="1" parent="1">
          <mxGeometry x="857.5" y="70" width="190" height="30" as="geometry" />
        </mxCell>
        <mxCell id="1KzH7AS0oNHE0JMtrjqW-3" value="&lt;b&gt;&lt;font style=&quot;font-size: 15px;&quot;&gt;fact_sales&lt;/font&gt;&lt;/b&gt;" style="rounded=1;whiteSpace=wrap;html=1;fillColor=#f5f5f5;strokeColor=#666666;fontColor=#333333;" vertex="1" parent="1">
          <mxGeometry x="857.5" y="180" width="190" height="30" as="geometry" />
        </mxCell>
        <mxCell id="1KzH7AS0oNHE0JMtrjqW-5" value="&lt;b&gt;&lt;font style=&quot;font-size: 15px;&quot;&gt;dim_customers&lt;/font&gt;&lt;/b&gt;" style="rounded=1;whiteSpace=wrap;html=1;fillColor=#f5f5f5;strokeColor=#666666;fontColor=#333333;" vertex="1" parent="1">
          <mxGeometry x="857.5" y="300" width="190" height="30" as="geometry" />
        </mxCell>
        <mxCell id="1KzH7AS0oNHE0JMtrjqW-6" value="&lt;b&gt;&lt;font style=&quot;font-size: 15px;&quot;&gt;dim_products&lt;/font&gt;&lt;/b&gt;" style="rounded=1;whiteSpace=wrap;html=1;fillColor=#f5f5f5;strokeColor=#666666;fontColor=#333333;" vertex="1" parent="1">
          <mxGeometry x="861.25" y="440" width="190" height="30" as="geometry" />
        </mxCell>
        <mxCell id="1KzH7AS0oNHE0JMtrjqW-18" value="" style="endArrow=classic;html=1;rounded=0;exitX=1;exitY=0.75;exitDx=0;exitDy=0;entryX=0;entryY=0.75;entryDx=0;entryDy=0;jumpStyle=gap;" edge="1" parent="1" source="eheDV2lgLifIxSYM33uc-5" target="1KzH7AS0oNHE0JMtrjqW-5">
          <mxGeometry width="50" height="50" relative="1" as="geometry">
            <mxPoint x="820" y="290" as="sourcePoint" />
            <mxPoint x="870" y="240" as="targetPoint" />
          </mxGeometry>
        </mxCell>
        <mxCell id="1KzH7AS0oNHE0JMtrjqW-20" value="" style="endArrow=classic;html=1;rounded=0;exitX=1;exitY=0.75;exitDx=0;exitDy=0;entryX=0;entryY=0.75;entryDx=0;entryDy=0;jumpStyle=gap;" edge="1" parent="1" target="1KzH7AS0oNHE0JMtrjqW-6">
          <mxGeometry width="50" height="50" relative="1" as="geometry">
            <mxPoint x="787.5" y="300" as="sourcePoint" />
            <mxPoint x="857.5" y="380" as="targetPoint" />
          </mxGeometry>
        </mxCell>
        <mxCell id="1KzH7AS0oNHE0JMtrjqW-21" value="" style="endArrow=classic;html=1;rounded=0;exitX=1;exitY=0.5;exitDx=0;exitDy=0;entryX=0;entryY=0.5;entryDx=0;entryDy=0;jumpStyle=gap;" edge="1" parent="1" source="eheDV2lgLifIxSYM33uc-7" target="1KzH7AS0oNHE0JMtrjqW-5">
          <mxGeometry width="50" height="50" relative="1" as="geometry">
            <mxPoint x="780" y="380" as="sourcePoint" />
            <mxPoint x="850" y="460" as="targetPoint" />
          </mxGeometry>
        </mxCell>
        <mxCell id="1KzH7AS0oNHE0JMtrjqW-22" value="" style="endArrow=classic;html=1;rounded=0;exitX=1;exitY=0.75;exitDx=0;exitDy=0;entryX=0;entryY=0.75;entryDx=0;entryDy=0;jumpStyle=gap;" edge="1" parent="1" target="1KzH7AS0oNHE0JMtrjqW-5">
          <mxGeometry width="50" height="50" relative="1" as="geometry">
            <mxPoint x="780" y="440" as="sourcePoint" />
            <mxPoint x="850" y="520" as="targetPoint" />
          </mxGeometry>
        </mxCell>
        <mxCell id="1KzH7AS0oNHE0JMtrjqW-23" value="" style="endArrow=classic;html=1;rounded=0;exitX=1;exitY=0.75;exitDx=0;exitDy=0;entryX=0;entryY=0.5;entryDx=0;entryDy=0;jumpStyle=gap;" edge="1" parent="1" target="1KzH7AS0oNHE0JMtrjqW-6">
          <mxGeometry width="50" height="50" relative="1" as="geometry">
            <mxPoint x="787.5" y="510" as="sourcePoint" />
            <mxPoint x="857.5" y="590" as="targetPoint" />
          </mxGeometry>
        </mxCell>
      </root>
    </mxGraphModel>
  </diagram>
  <diagram id="xSsXQYn6WqBrquvkGvg2" name="Integration Model">
    <mxGraphModel dx="1900" dy="621" grid="1" gridSize="10" guides="1" tooltips="1" connect="1" arrows="1" fold="1" page="1" pageScale="1" pageWidth="850" pageHeight="1100" math="0" shadow="0">
      <root>
        <mxCell id="0" />
        <mxCell id="1" parent="0" />
        <mxCell id="yBM2z6upm1-Kky6TcFYh-5" value="" style="rounded=1;whiteSpace=wrap;html=1;fillColor=none;dashed=1;" vertex="1" parent="1">
          <mxGeometry x="20" y="60" width="480" height="440" as="geometry" />
        </mxCell>
        <mxCell id="yBM2z6upm1-Kky6TcFYh-7" value="" style="rounded=1;whiteSpace=wrap;html=1;fillColor=none;dashed=1;" vertex="1" parent="1">
          <mxGeometry x="540" y="60" width="300" height="440" as="geometry" />
        </mxCell>
        <mxCell id="2iNjprLx31qngwP2TrHN-1" value="crm_cust_info" style="swimlane;fontStyle=0;childLayout=stackLayout;horizontal=1;startSize=30;horizontalStack=0;resizeParent=1;resizeParentMax=0;resizeLast=0;collapsible=1;marginBottom=0;whiteSpace=wrap;html=1;fillColor=#dae8fc;strokeColor=#6c8ebf;" vertex="1" parent="1">
          <mxGeometry x="310" y="290" width="140" height="90" as="geometry" />
        </mxCell>
        <mxCell id="2iNjprLx31qngwP2TrHN-2" value="cst_id" style="text;strokeColor=#6c8ebf;fillColor=none;align=left;verticalAlign=middle;spacingLeft=4;spacingRight=4;overflow=hidden;points=[[0,0.5],[1,0.5]];portConstraint=eastwest;rotatable=0;whiteSpace=wrap;html=1;" vertex="1" parent="2iNjprLx31qngwP2TrHN-1">
          <mxGeometry y="30" width="140" height="30" as="geometry" />
        </mxCell>
        <mxCell id="2iNjprLx31qngwP2TrHN-29" value="cst_key" style="text;strokeColor=#6c8ebf;fillColor=none;align=left;verticalAlign=middle;spacingLeft=4;spacingRight=4;overflow=hidden;points=[[0,0.5],[1,0.5]];portConstraint=eastwest;rotatable=0;whiteSpace=wrap;html=1;" vertex="1" parent="2iNjprLx31qngwP2TrHN-1">
          <mxGeometry y="60" width="140" height="30" as="geometry" />
        </mxCell>
        <mxCell id="2iNjprLx31qngwP2TrHN-5" value="&lt;font style=&quot;font-size: 18px;&quot;&gt;Integration Model&lt;/font&gt;" style="text;html=1;align=center;verticalAlign=middle;whiteSpace=wrap;rounded=0;fontStyle=1" vertex="1" parent="1">
          <mxGeometry x="-50" width="290" height="50" as="geometry" />
        </mxCell>
        <mxCell id="2iNjprLx31qngwP2TrHN-6" value="Customer information" style="text;html=1;align=center;verticalAlign=middle;whiteSpace=wrap;rounded=0;" vertex="1" parent="1">
          <mxGeometry x="320" y="260" width="120" height="20" as="geometry" />
        </mxCell>
        <mxCell id="2iNjprLx31qngwP2TrHN-7" value="crm_prd_info" style="swimlane;fontStyle=0;childLayout=stackLayout;horizontal=1;startSize=30;horizontalStack=0;resizeParent=1;resizeParentMax=0;resizeLast=0;collapsible=1;marginBottom=0;whiteSpace=wrap;html=1;fillColor=#dae8fc;strokeColor=#6c8ebf;" vertex="1" parent="1">
          <mxGeometry x="300" y="150" width="140" height="60" as="geometry" />
        </mxCell>
        <mxCell id="2iNjprLx31qngwP2TrHN-8" value="prd_key" style="text;strokeColor=#6c8ebf;fillColor=none;align=left;verticalAlign=middle;spacingLeft=4;spacingRight=4;overflow=hidden;points=[[0,0.5],[1,0.5]];portConstraint=eastwest;rotatable=0;whiteSpace=wrap;html=1;" vertex="1" parent="2iNjprLx31qngwP2TrHN-7">
          <mxGeometry y="30" width="140" height="30" as="geometry" />
        </mxCell>
        <mxCell id="2iNjprLx31qngwP2TrHN-9" value="Current &amp;amp; History of product info" style="text;html=1;align=center;verticalAlign=middle;whiteSpace=wrap;rounded=0;" vertex="1" parent="1">
          <mxGeometry x="310" y="120" width="120" height="20" as="geometry" />
        </mxCell>
        <mxCell id="2iNjprLx31qngwP2TrHN-10" value="crm_sales_details" style="swimlane;fontStyle=0;childLayout=stackLayout;horizontal=1;startSize=30;horizontalStack=0;resizeParent=1;resizeParentMax=0;resizeLast=0;collapsible=1;marginBottom=0;whiteSpace=wrap;html=1;fillColor=#dae8fc;strokeColor=#6c8ebf;rounded=0;glass=0;shadow=0;" vertex="1" parent="1">
          <mxGeometry x="50" y="200" width="140" height="90" as="geometry" />
        </mxCell>
        <mxCell id="2iNjprLx31qngwP2TrHN-11" value="prd_key" style="text;strokeColor=#6c8ebf;fillColor=none;align=left;verticalAlign=middle;spacingLeft=4;spacingRight=4;overflow=hidden;points=[[0,0.5],[1,0.5]];portConstraint=eastwest;rotatable=0;whiteSpace=wrap;html=1;" vertex="1" parent="2iNjprLx31qngwP2TrHN-10">
          <mxGeometry y="30" width="140" height="30" as="geometry" />
        </mxCell>
        <mxCell id="2iNjprLx31qngwP2TrHN-13" value="cst_id" style="text;strokeColor=#6c8ebf;fillColor=none;align=left;verticalAlign=middle;spacingLeft=4;spacingRight=4;overflow=hidden;points=[[0,0.5],[1,0.5]];portConstraint=eastwest;rotatable=0;whiteSpace=wrap;html=1;" vertex="1" parent="2iNjprLx31qngwP2TrHN-10">
          <mxGeometry y="60" width="140" height="30" as="geometry" />
        </mxCell>
        <mxCell id="2iNjprLx31qngwP2TrHN-12" value="Transcation records anout sales &amp;amp; orders" style="text;html=1;align=center;verticalAlign=middle;whiteSpace=wrap;rounded=0;" vertex="1" parent="1">
          <mxGeometry x="60" y="170" width="120" height="20" as="geometry" />
        </mxCell>
        <mxCell id="2iNjprLx31qngwP2TrHN-14" style="edgeStyle=orthogonalEdgeStyle;rounded=0;orthogonalLoop=1;jettySize=auto;html=1;entryX=-0.006;entryY=0.8;entryDx=0;entryDy=0;entryPerimeter=0;" edge="1" parent="1" source="2iNjprLx31qngwP2TrHN-11" target="2iNjprLx31qngwP2TrHN-8">
          <mxGeometry relative="1" as="geometry" />
        </mxCell>
        <mxCell id="2iNjprLx31qngwP2TrHN-15" style="edgeStyle=orthogonalEdgeStyle;rounded=0;orthogonalLoop=1;jettySize=auto;html=1;entryX=0;entryY=0.5;entryDx=0;entryDy=0;" edge="1" parent="1" source="2iNjprLx31qngwP2TrHN-13" target="2iNjprLx31qngwP2TrHN-2">
          <mxGeometry relative="1" as="geometry" />
        </mxCell>
        <mxCell id="2iNjprLx31qngwP2TrHN-17" value="erp_px_cat_g1v2" style="swimlane;fontStyle=0;childLayout=stackLayout;horizontal=1;startSize=30;horizontalStack=0;resizeParent=1;resizeParentMax=0;resizeLast=0;collapsible=1;marginBottom=0;whiteSpace=wrap;html=1;fillColor=#dae8fc;strokeColor=#6c8ebf;" vertex="1" parent="1">
          <mxGeometry x="650" y="100" width="140" height="60" as="geometry" />
        </mxCell>
        <mxCell id="2iNjprLx31qngwP2TrHN-18" value="id" style="text;strokeColor=#6c8ebf;fillColor=none;align=left;verticalAlign=middle;spacingLeft=4;spacingRight=4;overflow=hidden;points=[[0,0.5],[1,0.5]];portConstraint=eastwest;rotatable=0;whiteSpace=wrap;html=1;" vertex="1" parent="2iNjprLx31qngwP2TrHN-17">
          <mxGeometry y="30" width="140" height="30" as="geometry" />
        </mxCell>
        <mxCell id="2iNjprLx31qngwP2TrHN-19" value="Cateogry info" style="text;html=1;align=center;verticalAlign=middle;whiteSpace=wrap;rounded=0;" vertex="1" parent="1">
          <mxGeometry x="660" y="70" width="120" height="20" as="geometry" />
        </mxCell>
        <mxCell id="2iNjprLx31qngwP2TrHN-20" value="erp_cust_az12" style="swimlane;fontStyle=0;childLayout=stackLayout;horizontal=1;startSize=30;horizontalStack=0;resizeParent=1;resizeParentMax=0;resizeLast=0;collapsible=1;marginBottom=0;whiteSpace=wrap;html=1;fillColor=#dae8fc;strokeColor=#6c8ebf;" vertex="1" parent="1">
          <mxGeometry x="660" y="240" width="140" height="60" as="geometry" />
        </mxCell>
        <mxCell id="2iNjprLx31qngwP2TrHN-21" value="cid" style="text;strokeColor=#6c8ebf;fillColor=none;align=left;verticalAlign=middle;spacingLeft=4;spacingRight=4;overflow=hidden;points=[[0,0.5],[1,0.5]];portConstraint=eastwest;rotatable=0;whiteSpace=wrap;html=1;" vertex="1" parent="2iNjprLx31qngwP2TrHN-20">
          <mxGeometry y="30" width="140" height="30" as="geometry" />
        </mxCell>
        <mxCell id="2iNjprLx31qngwP2TrHN-22" value="Extra Customer info(birth date)" style="text;html=1;align=center;verticalAlign=middle;whiteSpace=wrap;rounded=0;" vertex="1" parent="1">
          <mxGeometry x="670" y="210" width="120" height="20" as="geometry" />
        </mxCell>
        <mxCell id="2iNjprLx31qngwP2TrHN-23" value="erp_loc_a101" style="swimlane;fontStyle=0;childLayout=stackLayout;horizontal=1;startSize=30;horizontalStack=0;resizeParent=1;resizeParentMax=0;resizeLast=0;collapsible=1;marginBottom=0;whiteSpace=wrap;html=1;fillColor=#dae8fc;strokeColor=#6c8ebf;" vertex="1" parent="1">
          <mxGeometry x="660" y="380" width="140" height="60" as="geometry" />
        </mxCell>
        <mxCell id="2iNjprLx31qngwP2TrHN-24" value="cid" style="text;strokeColor=#6c8ebf;fillColor=none;align=left;verticalAlign=middle;spacingLeft=4;spacingRight=4;overflow=hidden;points=[[0,0.5],[1,0.5]];portConstraint=eastwest;rotatable=0;whiteSpace=wrap;html=1;" vertex="1" parent="2iNjprLx31qngwP2TrHN-23">
          <mxGeometry y="30" width="140" height="30" as="geometry" />
        </mxCell>
        <mxCell id="2iNjprLx31qngwP2TrHN-25" value="Location of customers(country)" style="text;html=1;align=center;verticalAlign=middle;whiteSpace=wrap;rounded=0;" vertex="1" parent="1">
          <mxGeometry x="670" y="350" width="120" height="20" as="geometry" />
        </mxCell>
        <mxCell id="2iNjprLx31qngwP2TrHN-30" style="edgeStyle=orthogonalEdgeStyle;rounded=0;orthogonalLoop=1;jettySize=auto;html=1;" edge="1" parent="1" source="2iNjprLx31qngwP2TrHN-21" target="2iNjprLx31qngwP2TrHN-29">
          <mxGeometry relative="1" as="geometry" />
        </mxCell>
        <mxCell id="yBM2z6upm1-Kky6TcFYh-2" style="edgeStyle=orthogonalEdgeStyle;rounded=0;orthogonalLoop=1;jettySize=auto;html=1;entryX=1;entryY=0.5;entryDx=0;entryDy=0;" edge="1" parent="1" source="2iNjprLx31qngwP2TrHN-18" target="2iNjprLx31qngwP2TrHN-8">
          <mxGeometry relative="1" as="geometry" />
        </mxCell>
        <mxCell id="yBM2z6upm1-Kky6TcFYh-3" style="edgeStyle=orthogonalEdgeStyle;rounded=0;orthogonalLoop=1;jettySize=auto;html=1;entryX=1;entryY=0.5;entryDx=0;entryDy=0;" edge="1" parent="1" source="2iNjprLx31qngwP2TrHN-24" target="2iNjprLx31qngwP2TrHN-29">
          <mxGeometry relative="1" as="geometry" />
        </mxCell>
        <mxCell id="yBM2z6upm1-Kky6TcFYh-9" value="&lt;b&gt;&lt;font style=&quot;font-size: 16px;&quot;&gt;CRM&lt;/font&gt;&lt;/b&gt;" style="text;html=1;align=center;verticalAlign=middle;whiteSpace=wrap;rounded=0;fillColor=#dae8fc;strokeColor=#6c8ebf;" vertex="1" parent="1">
          <mxGeometry x="230" y="50" width="60" height="30" as="geometry" />
        </mxCell>
        <mxCell id="yBM2z6upm1-Kky6TcFYh-10" value="&lt;b&gt;&lt;font style=&quot;font-size: 16px;&quot;&gt;ERP&lt;/font&gt;&lt;/b&gt;" style="text;html=1;align=center;verticalAlign=middle;whiteSpace=wrap;rounded=0;fillColor=#f8cecc;strokeColor=#b85450;" vertex="1" parent="1">
          <mxGeometry x="680" y="40" width="60" height="30" as="geometry" />
        </mxCell>
        <mxCell id="pyRXGjdiwrihl7hRPTji-1" value="&lt;h1 style=&quot;margin-top: 0px;&quot;&gt;&lt;font style=&quot;font-weight: normal; font-size: 11px;&quot;&gt;How tables are related&lt;/font&gt;&lt;/h1&gt;" style="text;html=1;whiteSpace=wrap;overflow=hidden;rounded=0;" vertex="1" parent="1">
          <mxGeometry x="180" width="210" height="40" as="geometry" />
        </mxCell>
        <mxCell id="pyRXGjdiwrihl7hRPTji-2" value="Text" style="text;html=1;align=center;verticalAlign=middle;whiteSpace=wrap;rounded=0;" vertex="1" parent="1">
          <mxGeometry x="390" y="300" width="60" height="30" as="geometry" />
        </mxCell>
        <mxCell id="pyRXGjdiwrihl7hRPTji-3" value="PRODUCT" style="text;html=1;strokeColor=#d6b656;fillColor=#fff2cc;align=center;verticalAlign=middle;whiteSpace=wrap;overflow=hidden;fontStyle=1;fontSize=11;" vertex="1" parent="1">
          <mxGeometry x="300" y="210" width="140" height="20" as="geometry" />
        </mxCell>
        <mxCell id="pyRXGjdiwrihl7hRPTji-4" value="PRODUCT" style="text;html=1;strokeColor=#d6b656;fillColor=#fff2cc;align=center;verticalAlign=middle;whiteSpace=wrap;overflow=hidden;fontStyle=1;fontSize=11;" vertex="1" parent="1">
          <mxGeometry x="650" y="160" width="140" height="20" as="geometry" />
        </mxCell>
        <mxCell id="pyRXGjdiwrihl7hRPTji-5" value="CUSTOMER" style="text;html=1;strokeColor=#82b366;fillColor=#d5e8d4;align=center;verticalAlign=middle;whiteSpace=wrap;overflow=hidden;fontStyle=1;fontSize=11;" vertex="1" parent="1">
          <mxGeometry x="310" y="380" width="140" height="20" as="geometry" />
        </mxCell>
        <mxCell id="pyRXGjdiwrihl7hRPTji-6" value="CUSTOMER" style="text;html=1;strokeColor=#82b366;fillColor=#d5e8d4;align=center;verticalAlign=middle;whiteSpace=wrap;overflow=hidden;fontStyle=1;fontSize=11;" vertex="1" parent="1">
          <mxGeometry x="660" y="440" width="140" height="20" as="geometry" />
        </mxCell>
        <mxCell id="pyRXGjdiwrihl7hRPTji-7" value="CUSTOMER" style="text;html=1;strokeColor=#82b366;fillColor=#d5e8d4;align=center;verticalAlign=middle;whiteSpace=wrap;overflow=hidden;fontStyle=1;fontSize=11;" vertex="1" parent="1">
          <mxGeometry x="660" y="300" width="140" height="20" as="geometry" />
        </mxCell>
        <mxCell id="pyRXGjdiwrihl7hRPTji-8" value="SALES" style="text;html=1;strokeColor=#9673a6;fillColor=#e1d5e7;align=center;verticalAlign=middle;whiteSpace=wrap;overflow=hidden;fontStyle=1;fontSize=11;" vertex="1" parent="1">
          <mxGeometry x="50" y="290" width="140" height="20" as="geometry" />
        </mxCell>
      </root>
    </mxGraphModel>
  </diagram>
  <diagram id="YNQuA0tYHAjBs4KnGQXX" name="DATA MART">
    <mxGraphModel dx="1050" dy="621" grid="1" gridSize="10" guides="1" tooltips="1" connect="1" arrows="1" fold="1" page="1" pageScale="1" pageWidth="1200" pageHeight="1920" math="0" shadow="0">
      <root>
        <mxCell id="0" />
        <mxCell id="1" parent="0" />
        <mxCell id="gC2wXZwK-_-Ra2Y3DbIg-1" value="&lt;h1 style=&quot;margin-top: 0px;&quot;&gt;&lt;span style=&quot;font-size: 18px;&quot;&gt;DATA MART&lt;/span&gt;&lt;/h1&gt;" style="text;html=1;whiteSpace=wrap;overflow=hidden;rounded=0;align=center;" vertex="1" parent="1">
          <mxGeometry x="70" y="70" width="130" height="40" as="geometry" />
        </mxCell>
        <mxCell id="gC2wXZwK-_-Ra2Y3DbIg-2" value="(Star Schema)" style="text;html=1;align=center;verticalAlign=middle;whiteSpace=wrap;rounded=0;fontStyle=1" vertex="1" parent="1">
          <mxGeometry x="200" y="80" width="100" height="30" as="geometry" />
        </mxCell>
        <mxCell id="gC2wXZwK-_-Ra2Y3DbIg-3" value="&lt;span style=&quot;background-color: light-dark(#ffffff, var(--ge-dark-color, #121212));&quot;&gt;gold.dim_customers&lt;/span&gt;" style="shape=table;startSize=30;container=1;collapsible=1;childLayout=tableLayout;fixedRows=1;rowLines=0;fontStyle=1;align=center;resizeLast=1;html=1;fillColor=none;strokeColor=#d79b00;" vertex="1" parent="1">
          <mxGeometry x="120" y="220" width="180" height="330" as="geometry">
            <mxRectangle x="120" y="220" width="150" height="30" as="alternateBounds" />
          </mxGeometry>
        </mxCell>
        <mxCell id="gC2wXZwK-_-Ra2Y3DbIg-4" value="" style="shape=tableRow;horizontal=0;startSize=0;swimlaneHead=0;swimlaneBody=0;fillColor=none;collapsible=0;dropTarget=0;points=[[0,0.5],[1,0.5]];portConstraint=eastwest;top=0;left=0;right=0;bottom=1;fontStyle=1;strokeColor=#d79b00;" vertex="1" parent="gC2wXZwK-_-Ra2Y3DbIg-3">
          <mxGeometry y="30" width="180" height="30" as="geometry" />
        </mxCell>
        <mxCell id="gC2wXZwK-_-Ra2Y3DbIg-5" value="PK" style="shape=partialRectangle;connectable=0;fillColor=none;top=0;left=0;bottom=0;right=0;fontStyle=1;overflow=hidden;whiteSpace=wrap;html=1;strokeColor=#d79b00;" vertex="1" parent="gC2wXZwK-_-Ra2Y3DbIg-4">
          <mxGeometry width="30" height="30" as="geometry">
            <mxRectangle width="30" height="30" as="alternateBounds" />
          </mxGeometry>
        </mxCell>
        <mxCell id="gC2wXZwK-_-Ra2Y3DbIg-6" value="Customer_Key" style="shape=partialRectangle;connectable=0;fillColor=none;top=0;left=0;bottom=0;right=0;align=left;spacingLeft=6;fontStyle=5;overflow=hidden;whiteSpace=wrap;html=1;strokeColor=#d79b00;" vertex="1" parent="gC2wXZwK-_-Ra2Y3DbIg-4">
          <mxGeometry x="30" width="150" height="30" as="geometry">
            <mxRectangle width="150" height="30" as="alternateBounds" />
          </mxGeometry>
        </mxCell>
        <mxCell id="gC2wXZwK-_-Ra2Y3DbIg-7" value="" style="shape=tableRow;horizontal=0;startSize=0;swimlaneHead=0;swimlaneBody=0;fillColor=none;collapsible=0;dropTarget=0;points=[[0,0.5],[1,0.5]];portConstraint=eastwest;top=0;left=0;right=0;bottom=0;fontStyle=1;strokeColor=#d79b00;" vertex="1" parent="gC2wXZwK-_-Ra2Y3DbIg-3">
          <mxGeometry y="60" width="180" height="30" as="geometry" />
        </mxCell>
        <mxCell id="gC2wXZwK-_-Ra2Y3DbIg-8" value="" style="shape=partialRectangle;connectable=0;fillColor=none;top=0;left=0;bottom=0;right=0;editable=1;overflow=hidden;whiteSpace=wrap;html=1;fontStyle=1;strokeColor=#d79b00;" vertex="1" parent="gC2wXZwK-_-Ra2Y3DbIg-7">
          <mxGeometry width="30" height="30" as="geometry">
            <mxRectangle width="30" height="30" as="alternateBounds" />
          </mxGeometry>
        </mxCell>
        <mxCell id="gC2wXZwK-_-Ra2Y3DbIg-9" value="Customer_Id&lt;span style=&quot;white-space:pre&quot;&gt;&#x9;&lt;/span&gt;" style="shape=partialRectangle;connectable=0;fillColor=none;top=0;left=0;bottom=0;right=0;align=left;spacingLeft=6;overflow=hidden;whiteSpace=wrap;html=1;fontStyle=1;strokeColor=#d79b00;" vertex="1" parent="gC2wXZwK-_-Ra2Y3DbIg-7">
          <mxGeometry x="30" width="150" height="30" as="geometry">
            <mxRectangle width="150" height="30" as="alternateBounds" />
          </mxGeometry>
        </mxCell>
        <mxCell id="gC2wXZwK-_-Ra2Y3DbIg-10" value="" style="shape=tableRow;horizontal=0;startSize=0;swimlaneHead=0;swimlaneBody=0;fillColor=none;collapsible=0;dropTarget=0;points=[[0,0.5],[1,0.5]];portConstraint=eastwest;top=0;left=0;right=0;bottom=0;fontStyle=1;strokeColor=#d79b00;" vertex="1" parent="gC2wXZwK-_-Ra2Y3DbIg-3">
          <mxGeometry y="90" width="180" height="30" as="geometry" />
        </mxCell>
        <mxCell id="gC2wXZwK-_-Ra2Y3DbIg-11" value="" style="shape=partialRectangle;connectable=0;fillColor=none;top=0;left=0;bottom=0;right=0;editable=1;overflow=hidden;whiteSpace=wrap;html=1;fontStyle=1;strokeColor=#d79b00;" vertex="1" parent="gC2wXZwK-_-Ra2Y3DbIg-10">
          <mxGeometry width="30" height="30" as="geometry">
            <mxRectangle width="30" height="30" as="alternateBounds" />
          </mxGeometry>
        </mxCell>
        <mxCell id="gC2wXZwK-_-Ra2Y3DbIg-12" value="Customer_Number" style="shape=partialRectangle;connectable=0;fillColor=none;top=0;left=0;bottom=0;right=0;align=left;spacingLeft=6;overflow=hidden;whiteSpace=wrap;html=1;fontStyle=1;strokeColor=#d79b00;" vertex="1" parent="gC2wXZwK-_-Ra2Y3DbIg-10">
          <mxGeometry x="30" width="150" height="30" as="geometry">
            <mxRectangle width="150" height="30" as="alternateBounds" />
          </mxGeometry>
        </mxCell>
        <mxCell id="gC2wXZwK-_-Ra2Y3DbIg-13" value="" style="shape=tableRow;horizontal=0;startSize=0;swimlaneHead=0;swimlaneBody=0;fillColor=none;collapsible=0;dropTarget=0;points=[[0,0.5],[1,0.5]];portConstraint=eastwest;top=0;left=0;right=0;bottom=0;fontStyle=1;strokeColor=#d79b00;" vertex="1" parent="gC2wXZwK-_-Ra2Y3DbIg-3">
          <mxGeometry y="120" width="180" height="30" as="geometry" />
        </mxCell>
        <mxCell id="gC2wXZwK-_-Ra2Y3DbIg-14" value="" style="shape=partialRectangle;connectable=0;fillColor=none;top=0;left=0;bottom=0;right=0;editable=1;overflow=hidden;whiteSpace=wrap;html=1;fontStyle=1;strokeColor=#d79b00;" vertex="1" parent="gC2wXZwK-_-Ra2Y3DbIg-13">
          <mxGeometry width="30" height="30" as="geometry">
            <mxRectangle width="30" height="30" as="alternateBounds" />
          </mxGeometry>
        </mxCell>
        <mxCell id="gC2wXZwK-_-Ra2Y3DbIg-15" value="First_Name" style="shape=partialRectangle;connectable=0;fillColor=none;top=0;left=0;bottom=0;right=0;align=left;spacingLeft=6;overflow=hidden;whiteSpace=wrap;html=1;fontStyle=1;strokeColor=#d79b00;" vertex="1" parent="gC2wXZwK-_-Ra2Y3DbIg-13">
          <mxGeometry x="30" width="150" height="30" as="geometry">
            <mxRectangle width="150" height="30" as="alternateBounds" />
          </mxGeometry>
        </mxCell>
        <mxCell id="gC2wXZwK-_-Ra2Y3DbIg-20" value="" style="shape=tableRow;horizontal=0;startSize=0;swimlaneHead=0;swimlaneBody=0;fillColor=none;collapsible=0;dropTarget=0;points=[[0,0.5],[1,0.5]];portConstraint=eastwest;top=0;left=0;right=0;bottom=0;fontStyle=1;strokeColor=#d79b00;" vertex="1" parent="gC2wXZwK-_-Ra2Y3DbIg-3">
          <mxGeometry y="150" width="180" height="30" as="geometry" />
        </mxCell>
        <mxCell id="gC2wXZwK-_-Ra2Y3DbIg-21" value="" style="shape=partialRectangle;connectable=0;fillColor=none;top=0;left=0;bottom=0;right=0;editable=1;overflow=hidden;whiteSpace=wrap;html=1;fontStyle=1;strokeColor=#d79b00;" vertex="1" parent="gC2wXZwK-_-Ra2Y3DbIg-20">
          <mxGeometry width="30" height="30" as="geometry">
            <mxRectangle width="30" height="30" as="alternateBounds" />
          </mxGeometry>
        </mxCell>
        <mxCell id="gC2wXZwK-_-Ra2Y3DbIg-22" value="Last_Name" style="shape=partialRectangle;connectable=0;fillColor=none;top=0;left=0;bottom=0;right=0;align=left;spacingLeft=6;overflow=hidden;whiteSpace=wrap;html=1;fontStyle=1;strokeColor=#d79b00;" vertex="1" parent="gC2wXZwK-_-Ra2Y3DbIg-20">
          <mxGeometry x="30" width="150" height="30" as="geometry">
            <mxRectangle width="150" height="30" as="alternateBounds" />
          </mxGeometry>
        </mxCell>
        <mxCell id="gC2wXZwK-_-Ra2Y3DbIg-23" value="" style="shape=tableRow;horizontal=0;startSize=0;swimlaneHead=0;swimlaneBody=0;fillColor=none;collapsible=0;dropTarget=0;points=[[0,0.5],[1,0.5]];portConstraint=eastwest;top=0;left=0;right=0;bottom=0;fontStyle=1;strokeColor=#d79b00;" vertex="1" parent="gC2wXZwK-_-Ra2Y3DbIg-3">
          <mxGeometry y="180" width="180" height="30" as="geometry" />
        </mxCell>
        <mxCell id="gC2wXZwK-_-Ra2Y3DbIg-24" value="" style="shape=partialRectangle;connectable=0;fillColor=none;top=0;left=0;bottom=0;right=0;editable=1;overflow=hidden;whiteSpace=wrap;html=1;fontStyle=1;strokeColor=#d79b00;" vertex="1" parent="gC2wXZwK-_-Ra2Y3DbIg-23">
          <mxGeometry width="30" height="30" as="geometry">
            <mxRectangle width="30" height="30" as="alternateBounds" />
          </mxGeometry>
        </mxCell>
        <mxCell id="gC2wXZwK-_-Ra2Y3DbIg-25" value="Country" style="shape=partialRectangle;connectable=0;fillColor=none;top=0;left=0;bottom=0;right=0;align=left;spacingLeft=6;overflow=hidden;whiteSpace=wrap;html=1;fontStyle=1;strokeColor=#d79b00;" vertex="1" parent="gC2wXZwK-_-Ra2Y3DbIg-23">
          <mxGeometry x="30" width="150" height="30" as="geometry">
            <mxRectangle width="150" height="30" as="alternateBounds" />
          </mxGeometry>
        </mxCell>
        <mxCell id="gC2wXZwK-_-Ra2Y3DbIg-26" value="" style="shape=tableRow;horizontal=0;startSize=0;swimlaneHead=0;swimlaneBody=0;fillColor=none;collapsible=0;dropTarget=0;points=[[0,0.5],[1,0.5]];portConstraint=eastwest;top=0;left=0;right=0;bottom=0;fontStyle=1;strokeColor=#d79b00;" vertex="1" parent="gC2wXZwK-_-Ra2Y3DbIg-3">
          <mxGeometry y="210" width="180" height="30" as="geometry" />
        </mxCell>
        <mxCell id="gC2wXZwK-_-Ra2Y3DbIg-27" value="" style="shape=partialRectangle;connectable=0;fillColor=none;top=0;left=0;bottom=0;right=0;editable=1;overflow=hidden;whiteSpace=wrap;html=1;fontStyle=1;strokeColor=#d79b00;" vertex="1" parent="gC2wXZwK-_-Ra2Y3DbIg-26">
          <mxGeometry width="30" height="30" as="geometry">
            <mxRectangle width="30" height="30" as="alternateBounds" />
          </mxGeometry>
        </mxCell>
        <mxCell id="gC2wXZwK-_-Ra2Y3DbIg-28" value="Marital_Status" style="shape=partialRectangle;connectable=0;fillColor=none;top=0;left=0;bottom=0;right=0;align=left;spacingLeft=6;overflow=hidden;whiteSpace=wrap;html=1;fontStyle=1;strokeColor=#d79b00;" vertex="1" parent="gC2wXZwK-_-Ra2Y3DbIg-26">
          <mxGeometry x="30" width="150" height="30" as="geometry">
            <mxRectangle width="150" height="30" as="alternateBounds" />
          </mxGeometry>
        </mxCell>
        <mxCell id="gC2wXZwK-_-Ra2Y3DbIg-29" value="" style="shape=tableRow;horizontal=0;startSize=0;swimlaneHead=0;swimlaneBody=0;fillColor=none;collapsible=0;dropTarget=0;points=[[0,0.5],[1,0.5]];portConstraint=eastwest;top=0;left=0;right=0;bottom=0;fontStyle=1;strokeColor=#d79b00;" vertex="1" parent="gC2wXZwK-_-Ra2Y3DbIg-3">
          <mxGeometry y="240" width="180" height="30" as="geometry" />
        </mxCell>
        <mxCell id="gC2wXZwK-_-Ra2Y3DbIg-30" value="" style="shape=partialRectangle;connectable=0;fillColor=none;top=0;left=0;bottom=0;right=0;editable=1;overflow=hidden;whiteSpace=wrap;html=1;fontStyle=1;strokeColor=#d79b00;" vertex="1" parent="gC2wXZwK-_-Ra2Y3DbIg-29">
          <mxGeometry width="30" height="30" as="geometry">
            <mxRectangle width="30" height="30" as="alternateBounds" />
          </mxGeometry>
        </mxCell>
        <mxCell id="gC2wXZwK-_-Ra2Y3DbIg-31" value="Gender" style="shape=partialRectangle;connectable=0;fillColor=none;top=0;left=0;bottom=0;right=0;align=left;spacingLeft=6;overflow=hidden;whiteSpace=wrap;html=1;fontStyle=1;strokeColor=#d79b00;" vertex="1" parent="gC2wXZwK-_-Ra2Y3DbIg-29">
          <mxGeometry x="30" width="150" height="30" as="geometry">
            <mxRectangle width="150" height="30" as="alternateBounds" />
          </mxGeometry>
        </mxCell>
        <mxCell id="gC2wXZwK-_-Ra2Y3DbIg-32" value="" style="shape=tableRow;horizontal=0;startSize=0;swimlaneHead=0;swimlaneBody=0;fillColor=none;collapsible=0;dropTarget=0;points=[[0,0.5],[1,0.5]];portConstraint=eastwest;top=0;left=0;right=0;bottom=0;fontStyle=1;strokeColor=#d79b00;" vertex="1" parent="gC2wXZwK-_-Ra2Y3DbIg-3">
          <mxGeometry y="270" width="180" height="30" as="geometry" />
        </mxCell>
        <mxCell id="gC2wXZwK-_-Ra2Y3DbIg-33" value="" style="shape=partialRectangle;connectable=0;fillColor=none;top=0;left=0;bottom=0;right=0;editable=1;overflow=hidden;whiteSpace=wrap;html=1;fontStyle=1;strokeColor=#d79b00;" vertex="1" parent="gC2wXZwK-_-Ra2Y3DbIg-32">
          <mxGeometry width="30" height="30" as="geometry">
            <mxRectangle width="30" height="30" as="alternateBounds" />
          </mxGeometry>
        </mxCell>
        <mxCell id="gC2wXZwK-_-Ra2Y3DbIg-34" value="Create_Date" style="shape=partialRectangle;connectable=0;fillColor=none;top=0;left=0;bottom=0;right=0;align=left;spacingLeft=6;overflow=hidden;whiteSpace=wrap;html=1;fontStyle=1;strokeColor=#d79b00;" vertex="1" parent="gC2wXZwK-_-Ra2Y3DbIg-32">
          <mxGeometry x="30" width="150" height="30" as="geometry">
            <mxRectangle width="150" height="30" as="alternateBounds" />
          </mxGeometry>
        </mxCell>
        <mxCell id="gC2wXZwK-_-Ra2Y3DbIg-35" value="" style="shape=tableRow;horizontal=0;startSize=0;swimlaneHead=0;swimlaneBody=0;fillColor=none;collapsible=0;dropTarget=0;points=[[0,0.5],[1,0.5]];portConstraint=eastwest;top=0;left=0;right=0;bottom=0;fontStyle=1;strokeColor=#d79b00;" vertex="1" parent="gC2wXZwK-_-Ra2Y3DbIg-3">
          <mxGeometry y="300" width="180" height="30" as="geometry" />
        </mxCell>
        <mxCell id="gC2wXZwK-_-Ra2Y3DbIg-36" value="" style="shape=partialRectangle;connectable=0;fillColor=none;top=0;left=0;bottom=0;right=0;editable=1;overflow=hidden;whiteSpace=wrap;html=1;fontStyle=1;strokeColor=#d79b00;" vertex="1" parent="gC2wXZwK-_-Ra2Y3DbIg-35">
          <mxGeometry width="30" height="30" as="geometry">
            <mxRectangle width="30" height="30" as="alternateBounds" />
          </mxGeometry>
        </mxCell>
        <mxCell id="gC2wXZwK-_-Ra2Y3DbIg-37" value="Birth_Date" style="shape=partialRectangle;connectable=0;fillColor=none;top=0;left=0;bottom=0;right=0;align=left;spacingLeft=6;overflow=hidden;whiteSpace=wrap;html=1;fontStyle=1;strokeColor=#d79b00;" vertex="1" parent="gC2wXZwK-_-Ra2Y3DbIg-35">
          <mxGeometry x="30" width="150" height="30" as="geometry">
            <mxRectangle width="150" height="30" as="alternateBounds" />
          </mxGeometry>
        </mxCell>
        <mxCell id="gC2wXZwK-_-Ra2Y3DbIg-44" value="gold.dim_productsA" style="shape=table;startSize=30;container=1;collapsible=1;childLayout=tableLayout;fixedRows=1;rowLines=0;fontStyle=1;align=center;resizeLast=1;html=1;fillColor=none;strokeColor=#82b366;" vertex="1" parent="1">
          <mxGeometry x="750" y="210" width="180" height="360" as="geometry" />
        </mxCell>
        <mxCell id="gC2wXZwK-_-Ra2Y3DbIg-45" value="" style="shape=tableRow;horizontal=0;startSize=0;swimlaneHead=0;swimlaneBody=0;fillColor=none;collapsible=0;dropTarget=0;points=[[0,0.5],[1,0.5]];portConstraint=eastwest;top=0;left=0;right=0;bottom=1;fontStyle=1;strokeColor=#82b366;" vertex="1" parent="gC2wXZwK-_-Ra2Y3DbIg-44">
          <mxGeometry y="30" width="180" height="30" as="geometry" />
        </mxCell>
        <mxCell id="gC2wXZwK-_-Ra2Y3DbIg-46" value="PK" style="shape=partialRectangle;connectable=0;fillColor=none;top=0;left=0;bottom=0;right=0;fontStyle=1;overflow=hidden;whiteSpace=wrap;html=1;strokeColor=#82b366;" vertex="1" parent="gC2wXZwK-_-Ra2Y3DbIg-45">
          <mxGeometry width="30" height="30" as="geometry">
            <mxRectangle width="30" height="30" as="alternateBounds" />
          </mxGeometry>
        </mxCell>
        <mxCell id="gC2wXZwK-_-Ra2Y3DbIg-47" value="Product_Key" style="shape=partialRectangle;connectable=0;fillColor=none;top=0;left=0;bottom=0;right=0;align=left;spacingLeft=6;fontStyle=5;overflow=hidden;whiteSpace=wrap;html=1;strokeColor=#82b366;" vertex="1" parent="gC2wXZwK-_-Ra2Y3DbIg-45">
          <mxGeometry x="30" width="150" height="30" as="geometry">
            <mxRectangle width="150" height="30" as="alternateBounds" />
          </mxGeometry>
        </mxCell>
        <mxCell id="gC2wXZwK-_-Ra2Y3DbIg-48" value="" style="shape=tableRow;horizontal=0;startSize=0;swimlaneHead=0;swimlaneBody=0;fillColor=none;collapsible=0;dropTarget=0;points=[[0,0.5],[1,0.5]];portConstraint=eastwest;top=0;left=0;right=0;bottom=0;fontStyle=1;strokeColor=#82b366;" vertex="1" parent="gC2wXZwK-_-Ra2Y3DbIg-44">
          <mxGeometry y="60" width="180" height="30" as="geometry" />
        </mxCell>
        <mxCell id="gC2wXZwK-_-Ra2Y3DbIg-49" value="" style="shape=partialRectangle;connectable=0;fillColor=none;top=0;left=0;bottom=0;right=0;editable=1;overflow=hidden;whiteSpace=wrap;html=1;fontStyle=1;strokeColor=#82b366;" vertex="1" parent="gC2wXZwK-_-Ra2Y3DbIg-48">
          <mxGeometry width="30" height="30" as="geometry">
            <mxRectangle width="30" height="30" as="alternateBounds" />
          </mxGeometry>
        </mxCell>
        <mxCell id="gC2wXZwK-_-Ra2Y3DbIg-50" value="Product_Id" style="shape=partialRectangle;connectable=0;fillColor=none;top=0;left=0;bottom=0;right=0;align=left;spacingLeft=6;overflow=hidden;whiteSpace=wrap;html=1;fontStyle=1;strokeColor=#82b366;" vertex="1" parent="gC2wXZwK-_-Ra2Y3DbIg-48">
          <mxGeometry x="30" width="150" height="30" as="geometry">
            <mxRectangle width="150" height="30" as="alternateBounds" />
          </mxGeometry>
        </mxCell>
        <mxCell id="gC2wXZwK-_-Ra2Y3DbIg-51" value="" style="shape=tableRow;horizontal=0;startSize=0;swimlaneHead=0;swimlaneBody=0;fillColor=none;collapsible=0;dropTarget=0;points=[[0,0.5],[1,0.5]];portConstraint=eastwest;top=0;left=0;right=0;bottom=0;fontStyle=1;strokeColor=#82b366;" vertex="1" parent="gC2wXZwK-_-Ra2Y3DbIg-44">
          <mxGeometry y="90" width="180" height="30" as="geometry" />
        </mxCell>
        <mxCell id="gC2wXZwK-_-Ra2Y3DbIg-52" value="" style="shape=partialRectangle;connectable=0;fillColor=none;top=0;left=0;bottom=0;right=0;editable=1;overflow=hidden;whiteSpace=wrap;html=1;fontStyle=1;strokeColor=#82b366;" vertex="1" parent="gC2wXZwK-_-Ra2Y3DbIg-51">
          <mxGeometry width="30" height="30" as="geometry">
            <mxRectangle width="30" height="30" as="alternateBounds" />
          </mxGeometry>
        </mxCell>
        <mxCell id="gC2wXZwK-_-Ra2Y3DbIg-53" value="Product_Number" style="shape=partialRectangle;connectable=0;fillColor=none;top=0;left=0;bottom=0;right=0;align=left;spacingLeft=6;overflow=hidden;whiteSpace=wrap;html=1;fontStyle=1;strokeColor=#82b366;" vertex="1" parent="gC2wXZwK-_-Ra2Y3DbIg-51">
          <mxGeometry x="30" width="150" height="30" as="geometry">
            <mxRectangle width="150" height="30" as="alternateBounds" />
          </mxGeometry>
        </mxCell>
        <mxCell id="gC2wXZwK-_-Ra2Y3DbIg-54" value="" style="shape=tableRow;horizontal=0;startSize=0;swimlaneHead=0;swimlaneBody=0;fillColor=none;collapsible=0;dropTarget=0;points=[[0,0.5],[1,0.5]];portConstraint=eastwest;top=0;left=0;right=0;bottom=0;fontStyle=1;strokeColor=#82b366;" vertex="1" parent="gC2wXZwK-_-Ra2Y3DbIg-44">
          <mxGeometry y="120" width="180" height="30" as="geometry" />
        </mxCell>
        <mxCell id="gC2wXZwK-_-Ra2Y3DbIg-55" value="" style="shape=partialRectangle;connectable=0;fillColor=none;top=0;left=0;bottom=0;right=0;editable=1;overflow=hidden;whiteSpace=wrap;html=1;fontStyle=1;strokeColor=#82b366;" vertex="1" parent="gC2wXZwK-_-Ra2Y3DbIg-54">
          <mxGeometry width="30" height="30" as="geometry">
            <mxRectangle width="30" height="30" as="alternateBounds" />
          </mxGeometry>
        </mxCell>
        <mxCell id="gC2wXZwK-_-Ra2Y3DbIg-56" value="Product_Name" style="shape=partialRectangle;connectable=0;fillColor=none;top=0;left=0;bottom=0;right=0;align=left;spacingLeft=6;overflow=hidden;whiteSpace=wrap;html=1;fontStyle=1;strokeColor=#82b366;" vertex="1" parent="gC2wXZwK-_-Ra2Y3DbIg-54">
          <mxGeometry x="30" width="150" height="30" as="geometry">
            <mxRectangle width="150" height="30" as="alternateBounds" />
          </mxGeometry>
        </mxCell>
        <mxCell id="gC2wXZwK-_-Ra2Y3DbIg-57" value="" style="shape=tableRow;horizontal=0;startSize=0;swimlaneHead=0;swimlaneBody=0;fillColor=none;collapsible=0;dropTarget=0;points=[[0,0.5],[1,0.5]];portConstraint=eastwest;top=0;left=0;right=0;bottom=0;fontStyle=1;strokeColor=#82b366;" vertex="1" parent="gC2wXZwK-_-Ra2Y3DbIg-44">
          <mxGeometry y="150" width="180" height="30" as="geometry" />
        </mxCell>
        <mxCell id="gC2wXZwK-_-Ra2Y3DbIg-58" value="" style="shape=partialRectangle;connectable=0;fillColor=none;top=0;left=0;bottom=0;right=0;editable=1;overflow=hidden;whiteSpace=wrap;html=1;fontStyle=1;strokeColor=#82b366;" vertex="1" parent="gC2wXZwK-_-Ra2Y3DbIg-57">
          <mxGeometry width="30" height="30" as="geometry">
            <mxRectangle width="30" height="30" as="alternateBounds" />
          </mxGeometry>
        </mxCell>
        <mxCell id="gC2wXZwK-_-Ra2Y3DbIg-59" value="Category" style="shape=partialRectangle;connectable=0;fillColor=none;top=0;left=0;bottom=0;right=0;align=left;spacingLeft=6;overflow=hidden;whiteSpace=wrap;html=1;fontStyle=1;strokeColor=#82b366;" vertex="1" parent="gC2wXZwK-_-Ra2Y3DbIg-57">
          <mxGeometry x="30" width="150" height="30" as="geometry">
            <mxRectangle width="150" height="30" as="alternateBounds" />
          </mxGeometry>
        </mxCell>
        <mxCell id="gC2wXZwK-_-Ra2Y3DbIg-60" value="" style="shape=tableRow;horizontal=0;startSize=0;swimlaneHead=0;swimlaneBody=0;fillColor=none;collapsible=0;dropTarget=0;points=[[0,0.5],[1,0.5]];portConstraint=eastwest;top=0;left=0;right=0;bottom=0;fontStyle=1;strokeColor=#82b366;" vertex="1" parent="gC2wXZwK-_-Ra2Y3DbIg-44">
          <mxGeometry y="180" width="180" height="30" as="geometry" />
        </mxCell>
        <mxCell id="gC2wXZwK-_-Ra2Y3DbIg-61" value="" style="shape=partialRectangle;connectable=0;fillColor=none;top=0;left=0;bottom=0;right=0;editable=1;overflow=hidden;whiteSpace=wrap;html=1;fontStyle=1;strokeColor=#82b366;" vertex="1" parent="gC2wXZwK-_-Ra2Y3DbIg-60">
          <mxGeometry width="30" height="30" as="geometry">
            <mxRectangle width="30" height="30" as="alternateBounds" />
          </mxGeometry>
        </mxCell>
        <mxCell id="gC2wXZwK-_-Ra2Y3DbIg-62" value="Category_Id" style="shape=partialRectangle;connectable=0;fillColor=none;top=0;left=0;bottom=0;right=0;align=left;spacingLeft=6;overflow=hidden;whiteSpace=wrap;html=1;fontStyle=1;strokeColor=#82b366;" vertex="1" parent="gC2wXZwK-_-Ra2Y3DbIg-60">
          <mxGeometry x="30" width="150" height="30" as="geometry">
            <mxRectangle width="150" height="30" as="alternateBounds" />
          </mxGeometry>
        </mxCell>
        <mxCell id="gC2wXZwK-_-Ra2Y3DbIg-63" value="" style="shape=tableRow;horizontal=0;startSize=0;swimlaneHead=0;swimlaneBody=0;fillColor=none;collapsible=0;dropTarget=0;points=[[0,0.5],[1,0.5]];portConstraint=eastwest;top=0;left=0;right=0;bottom=0;fontStyle=1;strokeColor=#82b366;" vertex="1" parent="gC2wXZwK-_-Ra2Y3DbIg-44">
          <mxGeometry y="210" width="180" height="30" as="geometry" />
        </mxCell>
        <mxCell id="gC2wXZwK-_-Ra2Y3DbIg-64" value="" style="shape=partialRectangle;connectable=0;fillColor=none;top=0;left=0;bottom=0;right=0;editable=1;overflow=hidden;whiteSpace=wrap;html=1;fontStyle=1;strokeColor=#82b366;" vertex="1" parent="gC2wXZwK-_-Ra2Y3DbIg-63">
          <mxGeometry width="30" height="30" as="geometry">
            <mxRectangle width="30" height="30" as="alternateBounds" />
          </mxGeometry>
        </mxCell>
        <mxCell id="gC2wXZwK-_-Ra2Y3DbIg-65" value="Sub_Category" style="shape=partialRectangle;connectable=0;fillColor=none;top=0;left=0;bottom=0;right=0;align=left;spacingLeft=6;overflow=hidden;whiteSpace=wrap;html=1;fontStyle=1;strokeColor=#82b366;" vertex="1" parent="gC2wXZwK-_-Ra2Y3DbIg-63">
          <mxGeometry x="30" width="150" height="30" as="geometry">
            <mxRectangle width="150" height="30" as="alternateBounds" />
          </mxGeometry>
        </mxCell>
        <mxCell id="gC2wXZwK-_-Ra2Y3DbIg-66" value="" style="shape=tableRow;horizontal=0;startSize=0;swimlaneHead=0;swimlaneBody=0;fillColor=none;collapsible=0;dropTarget=0;points=[[0,0.5],[1,0.5]];portConstraint=eastwest;top=0;left=0;right=0;bottom=0;fontStyle=1;strokeColor=#82b366;" vertex="1" parent="gC2wXZwK-_-Ra2Y3DbIg-44">
          <mxGeometry y="240" width="180" height="30" as="geometry" />
        </mxCell>
        <mxCell id="gC2wXZwK-_-Ra2Y3DbIg-67" value="" style="shape=partialRectangle;connectable=0;fillColor=none;top=0;left=0;bottom=0;right=0;editable=1;overflow=hidden;whiteSpace=wrap;html=1;fontStyle=1;strokeColor=#82b366;" vertex="1" parent="gC2wXZwK-_-Ra2Y3DbIg-66">
          <mxGeometry width="30" height="30" as="geometry">
            <mxRectangle width="30" height="30" as="alternateBounds" />
          </mxGeometry>
        </mxCell>
        <mxCell id="gC2wXZwK-_-Ra2Y3DbIg-68" value="Maintenance" style="shape=partialRectangle;connectable=0;fillColor=none;top=0;left=0;bottom=0;right=0;align=left;spacingLeft=6;overflow=hidden;whiteSpace=wrap;html=1;fontStyle=1;strokeColor=#82b366;" vertex="1" parent="gC2wXZwK-_-Ra2Y3DbIg-66">
          <mxGeometry x="30" width="150" height="30" as="geometry">
            <mxRectangle width="150" height="30" as="alternateBounds" />
          </mxGeometry>
        </mxCell>
        <mxCell id="gC2wXZwK-_-Ra2Y3DbIg-69" value="" style="shape=tableRow;horizontal=0;startSize=0;swimlaneHead=0;swimlaneBody=0;fillColor=none;collapsible=0;dropTarget=0;points=[[0,0.5],[1,0.5]];portConstraint=eastwest;top=0;left=0;right=0;bottom=0;fontStyle=1;strokeColor=#82b366;" vertex="1" parent="gC2wXZwK-_-Ra2Y3DbIg-44">
          <mxGeometry y="270" width="180" height="30" as="geometry" />
        </mxCell>
        <mxCell id="gC2wXZwK-_-Ra2Y3DbIg-70" value="" style="shape=partialRectangle;connectable=0;fillColor=none;top=0;left=0;bottom=0;right=0;editable=1;overflow=hidden;whiteSpace=wrap;html=1;fontStyle=1;strokeColor=#82b366;" vertex="1" parent="gC2wXZwK-_-Ra2Y3DbIg-69">
          <mxGeometry width="30" height="30" as="geometry">
            <mxRectangle width="30" height="30" as="alternateBounds" />
          </mxGeometry>
        </mxCell>
        <mxCell id="gC2wXZwK-_-Ra2Y3DbIg-71" value="Product_Cost" style="shape=partialRectangle;connectable=0;fillColor=none;top=0;left=0;bottom=0;right=0;align=left;spacingLeft=6;overflow=hidden;whiteSpace=wrap;html=1;fontStyle=1;strokeColor=#82b366;" vertex="1" parent="gC2wXZwK-_-Ra2Y3DbIg-69">
          <mxGeometry x="30" width="150" height="30" as="geometry">
            <mxRectangle width="150" height="30" as="alternateBounds" />
          </mxGeometry>
        </mxCell>
        <mxCell id="gC2wXZwK-_-Ra2Y3DbIg-72" value="" style="shape=tableRow;horizontal=0;startSize=0;swimlaneHead=0;swimlaneBody=0;fillColor=none;collapsible=0;dropTarget=0;points=[[0,0.5],[1,0.5]];portConstraint=eastwest;top=0;left=0;right=0;bottom=0;fontStyle=1;strokeColor=#82b366;" vertex="1" parent="gC2wXZwK-_-Ra2Y3DbIg-44">
          <mxGeometry y="300" width="180" height="30" as="geometry" />
        </mxCell>
        <mxCell id="gC2wXZwK-_-Ra2Y3DbIg-73" value="" style="shape=partialRectangle;connectable=0;fillColor=none;top=0;left=0;bottom=0;right=0;editable=1;overflow=hidden;whiteSpace=wrap;html=1;fontStyle=1;strokeColor=#82b366;" vertex="1" parent="gC2wXZwK-_-Ra2Y3DbIg-72">
          <mxGeometry width="30" height="30" as="geometry">
            <mxRectangle width="30" height="30" as="alternateBounds" />
          </mxGeometry>
        </mxCell>
        <mxCell id="gC2wXZwK-_-Ra2Y3DbIg-74" value="Product_Line" style="shape=partialRectangle;connectable=0;fillColor=none;top=0;left=0;bottom=0;right=0;align=left;spacingLeft=6;overflow=hidden;whiteSpace=wrap;html=1;fontStyle=1;strokeColor=#82b366;" vertex="1" parent="gC2wXZwK-_-Ra2Y3DbIg-72">
          <mxGeometry x="30" width="150" height="30" as="geometry">
            <mxRectangle width="150" height="30" as="alternateBounds" />
          </mxGeometry>
        </mxCell>
        <mxCell id="gC2wXZwK-_-Ra2Y3DbIg-137" value="" style="shape=tableRow;horizontal=0;startSize=0;swimlaneHead=0;swimlaneBody=0;fillColor=none;collapsible=0;dropTarget=0;points=[[0,0.5],[1,0.5]];portConstraint=eastwest;top=0;left=0;right=0;bottom=0;fontStyle=1;strokeColor=#82b366;" vertex="1" parent="gC2wXZwK-_-Ra2Y3DbIg-44">
          <mxGeometry y="330" width="180" height="30" as="geometry" />
        </mxCell>
        <mxCell id="gC2wXZwK-_-Ra2Y3DbIg-138" value="" style="shape=partialRectangle;connectable=0;fillColor=none;top=0;left=0;bottom=0;right=0;editable=1;overflow=hidden;whiteSpace=wrap;html=1;fontStyle=1;strokeColor=#82b366;" vertex="1" parent="gC2wXZwK-_-Ra2Y3DbIg-137">
          <mxGeometry width="30" height="30" as="geometry">
            <mxRectangle width="30" height="30" as="alternateBounds" />
          </mxGeometry>
        </mxCell>
        <mxCell id="gC2wXZwK-_-Ra2Y3DbIg-139" value="&lt;div&gt;Start_Date&lt;/div&gt;&lt;div&gt;&lt;br&gt;&lt;/div&gt;" style="shape=partialRectangle;connectable=0;fillColor=none;top=0;left=0;bottom=0;right=0;align=left;spacingLeft=6;overflow=hidden;whiteSpace=wrap;html=1;fontStyle=1;strokeColor=#82b366;" vertex="1" parent="gC2wXZwK-_-Ra2Y3DbIg-137">
          <mxGeometry x="30" width="150" height="30" as="geometry">
            <mxRectangle width="150" height="30" as="alternateBounds" />
          </mxGeometry>
        </mxCell>
        <mxCell id="gC2wXZwK-_-Ra2Y3DbIg-140" value="gold.fact_sales" style="shape=table;startSize=30;container=1;collapsible=1;childLayout=tableLayout;fixedRows=1;rowLines=0;fontStyle=1;align=center;resizeLast=1;html=1;fillColor=none;strokeColor=#6c8ebf;" vertex="1" parent="1">
          <mxGeometry x="400" y="210" width="180" height="300" as="geometry" />
        </mxCell>
        <mxCell id="gC2wXZwK-_-Ra2Y3DbIg-144" value="" style="shape=tableRow;horizontal=0;startSize=0;swimlaneHead=0;swimlaneBody=0;fillColor=none;collapsible=0;dropTarget=0;points=[[0,0.5],[1,0.5]];portConstraint=eastwest;top=0;left=0;right=0;bottom=0;fontStyle=1;strokeColor=#6c8ebf;" vertex="1" parent="gC2wXZwK-_-Ra2Y3DbIg-140">
          <mxGeometry y="30" width="180" height="30" as="geometry" />
        </mxCell>
        <mxCell id="gC2wXZwK-_-Ra2Y3DbIg-145" value="" style="shape=partialRectangle;connectable=0;fillColor=none;top=0;left=0;bottom=0;right=0;editable=1;overflow=hidden;whiteSpace=wrap;html=1;fontStyle=1;strokeColor=#6c8ebf;" vertex="1" parent="gC2wXZwK-_-Ra2Y3DbIg-144">
          <mxGeometry width="40" height="30" as="geometry">
            <mxRectangle width="40" height="30" as="alternateBounds" />
          </mxGeometry>
        </mxCell>
        <mxCell id="gC2wXZwK-_-Ra2Y3DbIg-146" value="Order_Number" style="shape=partialRectangle;connectable=0;fillColor=none;top=0;left=0;bottom=0;right=0;align=left;spacingLeft=6;overflow=hidden;whiteSpace=wrap;html=1;fontStyle=1;strokeColor=#6c8ebf;" vertex="1" parent="gC2wXZwK-_-Ra2Y3DbIg-144">
          <mxGeometry x="40" width="140" height="30" as="geometry">
            <mxRectangle width="140" height="30" as="alternateBounds" />
          </mxGeometry>
        </mxCell>
        <mxCell id="gC2wXZwK-_-Ra2Y3DbIg-147" value="" style="shape=tableRow;horizontal=0;startSize=0;swimlaneHead=0;swimlaneBody=0;fillColor=none;collapsible=0;dropTarget=0;points=[[0,0.5],[1,0.5]];portConstraint=eastwest;top=0;left=0;right=0;bottom=0;fontStyle=1;strokeColor=#6c8ebf;" vertex="1" parent="gC2wXZwK-_-Ra2Y3DbIg-140">
          <mxGeometry y="60" width="180" height="30" as="geometry" />
        </mxCell>
        <mxCell id="gC2wXZwK-_-Ra2Y3DbIg-148" value="FK 1" style="shape=partialRectangle;connectable=0;fillColor=none;top=0;left=0;bottom=0;right=0;editable=1;overflow=hidden;whiteSpace=wrap;html=1;fontStyle=1;strokeColor=#6c8ebf;" vertex="1" parent="gC2wXZwK-_-Ra2Y3DbIg-147">
          <mxGeometry width="40" height="30" as="geometry">
            <mxRectangle width="40" height="30" as="alternateBounds" />
          </mxGeometry>
        </mxCell>
        <mxCell id="gC2wXZwK-_-Ra2Y3DbIg-149" value="Product_Key" style="shape=partialRectangle;connectable=0;fillColor=none;top=0;left=0;bottom=0;right=0;align=left;spacingLeft=6;overflow=hidden;whiteSpace=wrap;html=1;fontStyle=1;strokeColor=#6c8ebf;" vertex="1" parent="gC2wXZwK-_-Ra2Y3DbIg-147">
          <mxGeometry x="40" width="140" height="30" as="geometry">
            <mxRectangle width="140" height="30" as="alternateBounds" />
          </mxGeometry>
        </mxCell>
        <mxCell id="gC2wXZwK-_-Ra2Y3DbIg-150" value="" style="shape=tableRow;horizontal=0;startSize=0;swimlaneHead=0;swimlaneBody=0;fillColor=none;collapsible=0;dropTarget=0;points=[[0,0.5],[1,0.5]];portConstraint=eastwest;top=0;left=0;right=0;bottom=0;fontStyle=1;strokeColor=#6c8ebf;" vertex="1" parent="gC2wXZwK-_-Ra2Y3DbIg-140">
          <mxGeometry y="90" width="180" height="30" as="geometry" />
        </mxCell>
        <mxCell id="gC2wXZwK-_-Ra2Y3DbIg-151" value="FK 2" style="shape=partialRectangle;connectable=0;fillColor=none;top=0;left=0;bottom=0;right=0;editable=1;overflow=hidden;whiteSpace=wrap;html=1;fontStyle=1;strokeColor=#6c8ebf;" vertex="1" parent="gC2wXZwK-_-Ra2Y3DbIg-150">
          <mxGeometry width="40" height="30" as="geometry">
            <mxRectangle width="40" height="30" as="alternateBounds" />
          </mxGeometry>
        </mxCell>
        <mxCell id="gC2wXZwK-_-Ra2Y3DbIg-152" value="Customer_Key" style="shape=partialRectangle;connectable=0;fillColor=none;top=0;left=0;bottom=0;right=0;align=left;spacingLeft=6;overflow=hidden;whiteSpace=wrap;html=1;fontStyle=1;strokeColor=#6c8ebf;" vertex="1" parent="gC2wXZwK-_-Ra2Y3DbIg-150">
          <mxGeometry x="40" width="140" height="30" as="geometry">
            <mxRectangle width="140" height="30" as="alternateBounds" />
          </mxGeometry>
        </mxCell>
        <mxCell id="gC2wXZwK-_-Ra2Y3DbIg-153" value="" style="shape=tableRow;horizontal=0;startSize=0;swimlaneHead=0;swimlaneBody=0;fillColor=none;collapsible=0;dropTarget=0;points=[[0,0.5],[1,0.5]];portConstraint=eastwest;top=0;left=0;right=0;bottom=0;fontStyle=1;strokeColor=#6c8ebf;" vertex="1" parent="gC2wXZwK-_-Ra2Y3DbIg-140">
          <mxGeometry y="120" width="180" height="30" as="geometry" />
        </mxCell>
        <mxCell id="gC2wXZwK-_-Ra2Y3DbIg-154" value="" style="shape=partialRectangle;connectable=0;fillColor=none;top=0;left=0;bottom=0;right=0;editable=1;overflow=hidden;whiteSpace=wrap;html=1;fontStyle=1;strokeColor=#6c8ebf;" vertex="1" parent="gC2wXZwK-_-Ra2Y3DbIg-153">
          <mxGeometry width="40" height="30" as="geometry">
            <mxRectangle width="40" height="30" as="alternateBounds" />
          </mxGeometry>
        </mxCell>
        <mxCell id="gC2wXZwK-_-Ra2Y3DbIg-155" value="Order_Date" style="shape=partialRectangle;connectable=0;fillColor=none;top=0;left=0;bottom=0;right=0;align=left;spacingLeft=6;overflow=hidden;whiteSpace=wrap;html=1;fontStyle=1;strokeColor=#6c8ebf;" vertex="1" parent="gC2wXZwK-_-Ra2Y3DbIg-153">
          <mxGeometry x="40" width="140" height="30" as="geometry">
            <mxRectangle width="140" height="30" as="alternateBounds" />
          </mxGeometry>
        </mxCell>
        <mxCell id="gC2wXZwK-_-Ra2Y3DbIg-156" value="" style="shape=tableRow;horizontal=0;startSize=0;swimlaneHead=0;swimlaneBody=0;fillColor=none;collapsible=0;dropTarget=0;points=[[0,0.5],[1,0.5]];portConstraint=eastwest;top=0;left=0;right=0;bottom=0;fontStyle=1;strokeColor=#6c8ebf;" vertex="1" parent="gC2wXZwK-_-Ra2Y3DbIg-140">
          <mxGeometry y="150" width="180" height="30" as="geometry" />
        </mxCell>
        <mxCell id="gC2wXZwK-_-Ra2Y3DbIg-157" value="" style="shape=partialRectangle;connectable=0;fillColor=none;top=0;left=0;bottom=0;right=0;editable=1;overflow=hidden;whiteSpace=wrap;html=1;fontStyle=1;strokeColor=#6c8ebf;" vertex="1" parent="gC2wXZwK-_-Ra2Y3DbIg-156">
          <mxGeometry width="40" height="30" as="geometry">
            <mxRectangle width="40" height="30" as="alternateBounds" />
          </mxGeometry>
        </mxCell>
        <mxCell id="gC2wXZwK-_-Ra2Y3DbIg-158" value="Shipping_Date" style="shape=partialRectangle;connectable=0;fillColor=none;top=0;left=0;bottom=0;right=0;align=left;spacingLeft=6;overflow=hidden;whiteSpace=wrap;html=1;fontStyle=1;strokeColor=#6c8ebf;" vertex="1" parent="gC2wXZwK-_-Ra2Y3DbIg-156">
          <mxGeometry x="40" width="140" height="30" as="geometry">
            <mxRectangle width="140" height="30" as="alternateBounds" />
          </mxGeometry>
        </mxCell>
        <mxCell id="gC2wXZwK-_-Ra2Y3DbIg-159" value="" style="shape=tableRow;horizontal=0;startSize=0;swimlaneHead=0;swimlaneBody=0;fillColor=none;collapsible=0;dropTarget=0;points=[[0,0.5],[1,0.5]];portConstraint=eastwest;top=0;left=0;right=0;bottom=0;fontStyle=1;strokeColor=#6c8ebf;" vertex="1" parent="gC2wXZwK-_-Ra2Y3DbIg-140">
          <mxGeometry y="180" width="180" height="30" as="geometry" />
        </mxCell>
        <mxCell id="gC2wXZwK-_-Ra2Y3DbIg-160" value="" style="shape=partialRectangle;connectable=0;fillColor=none;top=0;left=0;bottom=0;right=0;editable=1;overflow=hidden;whiteSpace=wrap;html=1;fontStyle=1;strokeColor=#6c8ebf;" vertex="1" parent="gC2wXZwK-_-Ra2Y3DbIg-159">
          <mxGeometry width="40" height="30" as="geometry">
            <mxRectangle width="40" height="30" as="alternateBounds" />
          </mxGeometry>
        </mxCell>
        <mxCell id="gC2wXZwK-_-Ra2Y3DbIg-161" value="Due_Date" style="shape=partialRectangle;connectable=0;fillColor=none;top=0;left=0;bottom=0;right=0;align=left;spacingLeft=6;overflow=hidden;whiteSpace=wrap;html=1;fontStyle=1;strokeColor=#6c8ebf;" vertex="1" parent="gC2wXZwK-_-Ra2Y3DbIg-159">
          <mxGeometry x="40" width="140" height="30" as="geometry">
            <mxRectangle width="140" height="30" as="alternateBounds" />
          </mxGeometry>
        </mxCell>
        <mxCell id="gC2wXZwK-_-Ra2Y3DbIg-162" value="" style="shape=tableRow;horizontal=0;startSize=0;swimlaneHead=0;swimlaneBody=0;fillColor=none;collapsible=0;dropTarget=0;points=[[0,0.5],[1,0.5]];portConstraint=eastwest;top=0;left=0;right=0;bottom=0;fontStyle=1;strokeColor=#6c8ebf;" vertex="1" parent="gC2wXZwK-_-Ra2Y3DbIg-140">
          <mxGeometry y="210" width="180" height="30" as="geometry" />
        </mxCell>
        <mxCell id="gC2wXZwK-_-Ra2Y3DbIg-163" value="" style="shape=partialRectangle;connectable=0;fillColor=none;top=0;left=0;bottom=0;right=0;editable=1;overflow=hidden;whiteSpace=wrap;html=1;fontStyle=1;strokeColor=#6c8ebf;" vertex="1" parent="gC2wXZwK-_-Ra2Y3DbIg-162">
          <mxGeometry width="40" height="30" as="geometry">
            <mxRectangle width="40" height="30" as="alternateBounds" />
          </mxGeometry>
        </mxCell>
        <mxCell id="gC2wXZwK-_-Ra2Y3DbIg-164" value="Sales_Amount" style="shape=partialRectangle;connectable=0;fillColor=none;top=0;left=0;bottom=0;right=0;align=left;spacingLeft=6;overflow=hidden;whiteSpace=wrap;html=1;fontStyle=1;strokeColor=#6c8ebf;" vertex="1" parent="gC2wXZwK-_-Ra2Y3DbIg-162">
          <mxGeometry x="40" width="140" height="30" as="geometry">
            <mxRectangle width="140" height="30" as="alternateBounds" />
          </mxGeometry>
        </mxCell>
        <mxCell id="gC2wXZwK-_-Ra2Y3DbIg-165" value="" style="shape=tableRow;horizontal=0;startSize=0;swimlaneHead=0;swimlaneBody=0;fillColor=none;collapsible=0;dropTarget=0;points=[[0,0.5],[1,0.5]];portConstraint=eastwest;top=0;left=0;right=0;bottom=0;fontStyle=1;strokeColor=#6c8ebf;" vertex="1" parent="gC2wXZwK-_-Ra2Y3DbIg-140">
          <mxGeometry y="240" width="180" height="30" as="geometry" />
        </mxCell>
        <mxCell id="gC2wXZwK-_-Ra2Y3DbIg-166" value="" style="shape=partialRectangle;connectable=0;fillColor=none;top=0;left=0;bottom=0;right=0;editable=1;overflow=hidden;whiteSpace=wrap;html=1;fontStyle=1;strokeColor=#6c8ebf;" vertex="1" parent="gC2wXZwK-_-Ra2Y3DbIg-165">
          <mxGeometry width="40" height="30" as="geometry">
            <mxRectangle width="40" height="30" as="alternateBounds" />
          </mxGeometry>
        </mxCell>
        <mxCell id="gC2wXZwK-_-Ra2Y3DbIg-167" value="Quantity" style="shape=partialRectangle;connectable=0;fillColor=none;top=0;left=0;bottom=0;right=0;align=left;spacingLeft=6;overflow=hidden;whiteSpace=wrap;html=1;fontStyle=1;strokeColor=#6c8ebf;" vertex="1" parent="gC2wXZwK-_-Ra2Y3DbIg-165">
          <mxGeometry x="40" width="140" height="30" as="geometry">
            <mxRectangle width="140" height="30" as="alternateBounds" />
          </mxGeometry>
        </mxCell>
        <mxCell id="gC2wXZwK-_-Ra2Y3DbIg-168" value="" style="shape=tableRow;horizontal=0;startSize=0;swimlaneHead=0;swimlaneBody=0;fillColor=none;collapsible=0;dropTarget=0;points=[[0,0.5],[1,0.5]];portConstraint=eastwest;top=0;left=0;right=0;bottom=0;fontStyle=1;strokeColor=#6c8ebf;" vertex="1" parent="gC2wXZwK-_-Ra2Y3DbIg-140">
          <mxGeometry y="270" width="180" height="30" as="geometry" />
        </mxCell>
        <mxCell id="gC2wXZwK-_-Ra2Y3DbIg-169" value="" style="shape=partialRectangle;connectable=0;fillColor=none;top=0;left=0;bottom=0;right=0;editable=1;overflow=hidden;whiteSpace=wrap;html=1;fontStyle=1;strokeColor=#6c8ebf;" vertex="1" parent="gC2wXZwK-_-Ra2Y3DbIg-168">
          <mxGeometry width="40" height="30" as="geometry">
            <mxRectangle width="40" height="30" as="alternateBounds" />
          </mxGeometry>
        </mxCell>
        <mxCell id="gC2wXZwK-_-Ra2Y3DbIg-170" value="Price" style="shape=partialRectangle;connectable=0;fillColor=none;top=0;left=0;bottom=0;right=0;align=left;spacingLeft=6;overflow=hidden;whiteSpace=wrap;html=1;fontStyle=1;strokeColor=#6c8ebf;" vertex="1" parent="gC2wXZwK-_-Ra2Y3DbIg-168">
          <mxGeometry x="40" width="140" height="30" as="geometry">
            <mxRectangle width="140" height="30" as="alternateBounds" />
          </mxGeometry>
        </mxCell>
        <mxCell id="gC2wXZwK-_-Ra2Y3DbIg-174" value="" style="edgeStyle=entityRelationEdgeStyle;fontSize=12;html=1;endArrow=ERzeroToOne;startArrow=ERmandOne;rounded=0;entryX=0;entryY=0.5;entryDx=0;entryDy=0;" edge="1" parent="1">
          <mxGeometry width="100" height="100" relative="1" as="geometry">
            <mxPoint x="400" y="100" as="sourcePoint" />
            <mxPoint x="500" y="150" as="targetPoint" />
            <Array as="points">
              <mxPoint x="700" y="405" />
            </Array>
          </mxGeometry>
        </mxCell>
        <mxCell id="gC2wXZwK-_-Ra2Y3DbIg-176" value="" style="edgeStyle=entityRelationEdgeStyle;fontSize=12;html=1;endArrow=ERzeroToMany;startArrow=ERmandOne;rounded=0;entryX=0;entryY=0.5;entryDx=0;entryDy=0;" edge="1" parent="1" target="gC2wXZwK-_-Ra2Y3DbIg-150">
          <mxGeometry width="100" height="100" relative="1" as="geometry">
            <mxPoint x="300" y="270" as="sourcePoint" />
            <mxPoint x="400" y="170" as="targetPoint" />
          </mxGeometry>
        </mxCell>
        <mxCell id="gC2wXZwK-_-Ra2Y3DbIg-177" value="" style="edgeStyle=entityRelationEdgeStyle;fontSize=12;html=1;endArrow=ERzeroToMany;startArrow=ERmandOne;rounded=0;entryX=1;entryY=0.5;entryDx=0;entryDy=0;exitX=0;exitY=0.5;exitDx=0;exitDy=0;" edge="1" parent="1" source="gC2wXZwK-_-Ra2Y3DbIg-45" target="gC2wXZwK-_-Ra2Y3DbIg-147">
          <mxGeometry width="100" height="100" relative="1" as="geometry">
            <mxPoint x="620" y="290" as="sourcePoint" />
            <mxPoint x="720" y="335" as="targetPoint" />
            <Array as="points">
              <mxPoint x="930" y="460" />
              <mxPoint x="600" y="350" />
            </Array>
          </mxGeometry>
        </mxCell>
      </root>
    </mxGraphModel>
  </diagram>
</mxfile>
